<svg xmlns="http://www.w3.org/2000/svg" width="49" height="12" viewBox="0 0 49 12" fill="none">
  <path d="M0.724609 11.4543V2.45428H2.51438V3.55371H2.59535C2.67489 3.37757 2.78995 3.1986 2.94052 3.01678C3.09393 2.83212 3.29279 2.67871 3.53711 2.55655C3.78427 2.43155 4.09109 2.36905 4.45756 2.36905C4.93484 2.36905 5.37518 2.49405 5.77859 2.74405C6.182 2.99121 6.50444 3.36479 6.74592 3.86479C6.98739 4.36195 7.10813 4.98553 7.10813 5.73553C7.10813 6.46564 6.99023 7.08212 6.75444 7.58496C6.52148 8.08496 6.2033 8.46422 5.79989 8.72274C5.39933 8.97843 4.95046 9.10627 4.4533 9.10627C4.10103 9.10627 3.80131 9.04803 3.55415 8.93155C3.30984 8.81507 3.10955 8.66877 2.9533 8.49263C2.79705 8.31365 2.67773 8.13326 2.59535 7.95144H2.53995V11.4543H0.724609ZM2.5016 5.72701C2.5016 6.11621 2.55558 6.4557 2.66353 6.74547C2.77148 7.03525 2.92773 7.2611 3.13228 7.42303C3.33683 7.58212 3.5854 7.66167 3.87802 7.66167C4.17347 7.66167 4.42347 7.5807 4.62802 7.41877C4.83256 7.254 4.98739 7.02672 5.09251 6.73695C5.20046 6.44434 5.25444 6.10769 5.25444 5.72701C5.25444 5.34917 5.20188 5.01678 5.09677 4.72985C4.99166 4.44292 4.83683 4.21848 4.63228 4.05655C4.42773 3.89462 4.17631 3.81365 3.87802 3.81365C3.58256 3.81365 3.33256 3.89178 3.12802 4.04803C2.92631 4.20428 2.77148 4.42587 2.66353 4.7128C2.55558 4.99973 2.5016 5.3378 2.5016 5.72701Z" fill="#1C84DE"/>
  <path d="M10.1848 9.12331C9.76722 9.12331 9.39506 9.05087 9.06836 8.90598C8.74165 8.75826 8.48313 8.54093 8.29279 8.254C8.10529 7.96422 8.01154 7.60343 8.01154 7.17161C8.01154 6.80797 8.0783 6.50258 8.21183 6.25542C8.34535 6.00826 8.52717 5.80939 8.75728 5.65882C8.98739 5.50826 9.24876 5.39462 9.54137 5.31792C9.83682 5.24121 10.1465 5.18723 10.4703 5.15598C10.851 5.11621 11.1578 5.07928 11.3908 5.04519C11.6238 5.00826 11.7928 4.95428 11.8979 4.88326C12.003 4.81223 12.0556 4.70712 12.0556 4.56792V4.54235C12.0556 4.27246 11.9703 4.06365 11.7999 3.91593C11.6323 3.7682 11.3936 3.69434 11.084 3.69434C10.7573 3.69434 10.4973 3.76678 10.3042 3.91167C10.111 4.05371 9.98313 4.23269 9.92063 4.4486L8.24165 4.31223C8.32688 3.91451 8.4945 3.57076 8.7445 3.28098C8.9945 2.98837 9.31694 2.76394 9.71183 2.60769C10.1096 2.4486 10.5698 2.36905 11.0925 2.36905C11.4561 2.36905 11.8042 2.41167 12.1365 2.49689C12.4718 2.58212 12.7686 2.71422 13.0272 2.8932C13.2885 3.07218 13.4945 3.30229 13.6451 3.58354C13.7956 3.86195 13.8709 4.19576 13.8709 4.58496V8.99973H12.1493V8.09206H12.0982C11.9931 8.29661 11.8525 8.47701 11.6763 8.63326C11.5002 8.78667 11.2885 8.9074 11.0414 8.99547C10.7942 9.0807 10.5087 9.12331 10.1848 9.12331ZM10.7047 7.87047C10.9718 7.87047 11.2076 7.81792 11.4121 7.7128C11.6167 7.60485 11.7772 7.45996 11.8936 7.27814C12.0101 7.09632 12.0684 6.89036 12.0684 6.66025V5.96564C12.0115 6.00257 11.9334 6.03667 11.834 6.06792C11.7374 6.09633 11.628 6.12331 11.5059 6.14888C11.3837 6.17161 11.2615 6.19292 11.1394 6.2128C11.0172 6.22985 10.9064 6.24547 10.807 6.25968C10.5939 6.29093 10.4078 6.34064 10.2488 6.40882C10.0897 6.47701 9.96609 6.56934 9.87802 6.68581C9.78995 6.79945 9.74592 6.9415 9.74592 7.11195C9.74592 7.35911 9.83541 7.54803 10.0144 7.67871C10.1962 7.80655 10.4263 7.87047 10.7047 7.87047Z" fill="#1C84DE"/>
  <path d="M17.0946 5.21564V8.99973H15.2793V2.45428H17.0094V3.60911H17.0861C17.231 3.22843 17.4739 2.92729 17.8148 2.7057C18.1557 2.48127 18.5691 2.36905 19.0549 2.36905C19.5094 2.36905 19.9057 2.46848 20.2438 2.66735C20.5819 2.86621 20.8446 3.1503 21.0321 3.51962C21.2196 3.8861 21.3134 4.3236 21.3134 4.83212V8.99973H19.498V5.15598C19.5009 4.75542 19.3986 4.44292 19.1912 4.21848C18.9838 3.99121 18.6983 3.87757 18.3347 3.87757C18.0904 3.87757 17.8745 3.93013 17.687 4.03524C17.5023 4.14036 17.3574 4.29377 17.2523 4.49547C17.15 4.69434 17.0975 4.93439 17.0946 5.21564Z" fill="#1C84DE"/>
  <path d="M25.1561 9.10627C24.6589 9.10627 24.2086 8.97843 23.8052 8.72274C23.4047 8.46422 23.0865 8.08496 22.8507 7.58496C22.6177 7.08212 22.5012 6.46564 22.5012 5.73553C22.5012 4.98553 22.622 4.36195 22.8635 3.86479C23.1049 3.36479 23.426 2.99121 23.8265 2.74405C24.2299 2.49405 24.6717 2.36905 25.1518 2.36905C25.5183 2.36905 25.8237 2.43155 26.068 2.55655C26.3152 2.67871 26.514 2.83212 26.6646 3.01678C26.818 3.1986 26.9345 3.37757 27.014 3.55371H27.0694V0.272461H28.8805V8.99973H27.0907V7.95144H27.014C26.9288 8.13326 26.8081 8.31365 26.6518 8.49263C26.4984 8.66877 26.2981 8.81507 26.051 8.93155C25.8066 9.04803 25.5083 9.10627 25.1561 9.10627ZM25.7314 7.66167C26.024 7.66167 26.2711 7.58212 26.4728 7.42303C26.6774 7.2611 26.8336 7.03525 26.9416 6.74547C27.0524 6.4557 27.1078 6.11621 27.1078 5.72701C27.1078 5.3378 27.0538 4.99973 26.9458 4.7128C26.8379 4.42587 26.6816 4.20428 26.4771 4.04803C26.2725 3.89178 26.024 3.81365 25.7314 3.81365C25.4331 3.81365 25.1816 3.89462 24.9771 4.05655C24.7725 4.21848 24.6177 4.44292 24.5126 4.72985C24.4075 5.01678 24.3549 5.34917 24.3549 5.72701C24.3549 6.10769 24.4075 6.44434 24.5126 6.73695C24.6206 7.02672 24.7754 7.254 24.9771 7.41877C25.1816 7.5807 25.4331 7.66167 25.7314 7.66167Z" fill="#1C84DE"/>
  <path d="M33.356 9.12757C32.6827 9.12757 32.1032 8.99121 31.6174 8.71848C31.1344 8.44292 30.7623 8.05371 30.5009 7.55087C30.2395 7.04519 30.1088 6.44718 30.1088 5.75684C30.1088 5.08354 30.2395 4.49263 30.5009 3.98411C30.7623 3.47559 31.1301 3.07928 31.6046 2.79519C32.0819 2.5111 32.6415 2.36905 33.2836 2.36905C33.7154 2.36905 34.1174 2.43865 34.4895 2.57786C34.8645 2.71422 35.1912 2.92019 35.4696 3.19576C35.7509 3.47132 35.9696 3.81792 36.1259 4.23553C36.2821 4.6503 36.3603 5.1361 36.3603 5.69292V6.1915H30.8333V5.06649H34.6515C34.6515 4.80513 34.5946 4.5736 34.481 4.37189C34.3674 4.17019 34.2097 4.01252 34.008 3.89888C33.8091 3.7824 33.5776 3.72417 33.3134 3.72417C33.0378 3.72417 32.7935 3.78809 32.5804 3.91593C32.3702 4.04093 32.2054 4.20996 32.0861 4.42303C31.9668 4.63326 31.9057 4.86763 31.9029 5.12615V6.19576C31.9029 6.51962 31.9625 6.79945 32.0819 7.03525C32.204 7.27104 32.3759 7.45286 32.5975 7.5807C32.8191 7.70854 33.0819 7.77246 33.3858 7.77246C33.5875 7.77246 33.7722 7.74405 33.9398 7.68723C34.1074 7.63042 34.2509 7.54519 34.3702 7.43155C34.4895 7.31792 34.5804 7.17871 34.6429 7.01394L36.3219 7.12473C36.2367 7.52814 36.062 7.88042 35.7978 8.18155C35.5364 8.47985 35.1983 8.7128 34.7836 8.88042C34.3716 9.04519 33.8958 9.12757 33.356 9.12757Z" fill="#1C84DE"/>
  <path d="M40.5023 9.12757C39.8319 9.12757 39.2551 8.98553 38.7722 8.70144C38.2921 8.41451 37.9228 8.01678 37.6642 7.50826C37.4086 6.99973 37.2807 6.41451 37.2807 5.75257C37.2807 5.08212 37.41 4.49405 37.6685 3.98837C37.9299 3.47985 38.3006 3.08354 38.7807 2.79945C39.2608 2.51252 39.8319 2.36905 40.4938 2.36905C41.0648 2.36905 41.5648 2.47275 41.9938 2.68013C42.4228 2.88752 42.7623 3.17871 43.0123 3.55371C43.2623 3.92871 43.4 4.36905 43.4256 4.87473H41.7125C41.6642 4.54803 41.5364 4.28524 41.329 4.08638C41.1245 3.88468 40.856 3.78382 40.5236 3.78382C40.2424 3.78382 39.9966 3.86053 39.7864 4.01394C39.579 4.16451 39.4171 4.38468 39.3006 4.67445C39.1841 4.96422 39.1259 5.31507 39.1259 5.72701C39.1259 6.14462 39.1827 6.49973 39.2963 6.79235C39.4128 7.08496 39.5762 7.30797 39.7864 7.46138C39.9966 7.61479 40.2424 7.6915 40.5236 7.6915C40.731 7.6915 40.9171 7.64888 41.0819 7.56365C41.2495 7.47843 41.3873 7.35485 41.4952 7.19292C41.606 7.02814 41.6784 6.8307 41.7125 6.60059H43.4256C43.3972 7.10059 43.2608 7.54093 43.0165 7.92161C42.775 8.29945 42.4412 8.5949 42.0151 8.80797C41.589 9.02104 41.0847 9.12757 40.5023 9.12757Z" fill="#1C84DE"/>
  <path d="M48.0694 2.45428V3.81792H44.1277V2.45428H48.0694ZM45.0225 0.886097H46.8379V6.98837C46.8379 7.15598 46.8635 7.28667 46.9146 7.38042C46.9657 7.47133 47.0368 7.53525 47.1277 7.57218C47.2214 7.60911 47.3294 7.62757 47.4515 7.62757C47.5368 7.62757 47.622 7.62047 47.7072 7.60627C47.7924 7.58922 47.8578 7.57644 47.9032 7.56792L48.1887 8.91877C48.0978 8.94718 47.97 8.97985 47.8052 9.01678C47.6404 9.05655 47.4402 9.0807 47.2044 9.08922C46.7669 9.10627 46.3833 9.04803 46.0538 8.91451C45.7271 8.78098 45.4728 8.5736 45.291 8.29235C45.1092 8.0111 45.0197 7.65598 45.0225 7.22701V0.886097Z" fill="#1C84DE"/>
</svg>