<svg width="487" height="100" viewBox="0 0 487 100" fill="none" xmlns="http://www.w3.org/2000/svg">
<mask id="path-1-outside-1_400_2" maskUnits="userSpaceOnUse" x="84" y="19" width="321" height="65" fill="black">
<rect fill="white" x="84" y="19" width="321" height="65"/>
<path d="M96.88 69.36C96 69.36 95.28 69.08 94.72 68.52C94.16 67.92 93.88 67.22 93.88 66.42C93.88 66.1 93.94 65.76 94.06 65.4C94.18 65 94.34 64.7 94.54 64.5L107.92 48.6L95.74 33.3C95.26 32.66 95.02 32.04 95.02 31.44C95.02 30.64 95.32 29.96 95.92 29.4C96.56 28.8 97.28 28.5 98.08 28.5C99 28.5 99.76 28.86 100.36 29.58L111.82 43.92L123.88 29.58C124.16 29.22 124.5 28.96 124.9 28.8C125.34 28.6 125.76 28.5 126.16 28.5C126.96 28.5 127.66 28.8 128.26 29.4C128.86 30 129.16 30.68 129.16 31.44C129.16 32.12 128.92 32.76 128.44 33.36L115.6 48.66L128.26 64.62C128.62 65.06 128.8 65.66 128.8 66.42C128.8 67.22 128.52 67.92 127.96 68.52C127.4 69.08 126.72 69.36 125.92 69.36C124.96 69.36 124.18 69 123.58 68.28L111.64 53.4L99.1 68.28C98.5 69 97.76 69.36 96.88 69.36ZM138.342 69C137.502 69 136.782 68.72 136.182 68.16C135.622 67.56 135.342 66.84 135.342 66C135.342 65.16 135.622 64.46 136.182 63.9C136.782 63.3 137.502 63 138.342 63H142.542V34.8H138.342C137.502 34.8 136.782 34.5 136.182 33.9C135.622 33.3 135.342 32.58 135.342 31.74C135.342 30.9 135.622 30.2 136.182 29.64C136.782 29.08 137.502 28.8 138.342 28.8H152.682C153.522 28.8 154.222 29.08 154.782 29.64C155.342 30.2 155.622 30.9 155.622 31.74C155.622 32.58 155.342 33.3 154.782 33.9C154.222 34.5 153.522 34.8 152.682 34.8H148.542V63H152.682C153.562 63 154.262 63.3 154.782 63.9C155.342 64.46 155.622 65.16 155.622 66C155.622 66.84 155.342 67.56 154.782 68.16C154.222 68.72 153.522 69 152.682 69H138.342ZM172.978 69.36C172.338 69.36 171.758 69.2 171.238 68.88C170.718 68.52 170.358 68.02 170.158 67.38L158.458 32.76C158.298 32.28 158.218 31.82 158.218 31.38C158.218 30.54 158.498 29.86 159.058 29.34C159.618 28.82 160.358 28.56 161.278 28.56C161.918 28.56 162.478 28.74 162.958 29.1C163.438 29.42 163.798 29.92 164.038 30.6L173.218 57.78L184.018 30.42C184.298 29.82 184.678 29.36 185.158 29.04C185.638 28.72 186.178 28.56 186.778 28.56C187.618 28.56 188.318 28.86 188.878 29.46C189.438 30.02 189.718 30.68 189.718 31.44C189.718 31.84 189.638 32.22 189.478 32.58L175.738 67.5C175.258 68.74 174.338 69.36 172.978 69.36ZM197.523 69.36C196.723 69.36 196.023 69.08 195.423 68.52C194.823 67.96 194.523 67.26 194.523 66.42V32.16C194.523 31.04 194.663 30.24 194.943 29.76C195.223 29.24 195.743 28.9 196.503 28.74C197.303 28.54 198.583 28.44 200.343 28.44C207.783 28.44 213.343 29.54 217.023 31.74C220.743 33.94 222.603 37.12 222.603 41.28C222.603 44.64 221.423 47.4 219.063 49.56C216.703 51.72 213.843 53.3 210.483 54.3C207.123 55.3 203.783 55.86 200.463 55.98V66.42C200.463 67.26 200.183 67.96 199.623 68.52C199.063 69.08 198.363 69.36 197.523 69.36ZM200.463 50.1C204.383 49.86 208.063 49.08 211.503 47.76C214.943 46.4 216.663 44.24 216.663 41.28C216.663 39.08 215.323 37.38 212.643 36.18C210.003 34.98 206.223 34.38 201.303 34.38H200.463V50.1ZM246.588 69.96C245.788 69.96 245.128 69.74 244.608 69.3C244.128 68.86 243.888 68.28 243.888 67.56V66.72C242.248 68.48 239.968 69.36 237.048 69.36C234.848 69.36 232.868 68.82 231.107 67.74C229.348 66.66 227.968 65.14 226.968 63.18C225.968 61.18 225.468 58.92 225.468 56.4C225.468 53.6 226.068 50.9 227.268 48.3C228.468 45.66 230.148 43.52 232.308 41.88C234.508 40.24 237.028 39.42 239.868 39.42C241.708 39.42 243.368 39.68 244.848 40.2C246.328 40.68 247.868 41.28 249.468 42V66.96C249.468 67.76 249.188 68.46 248.628 69.06C248.068 69.66 247.388 69.96 246.588 69.96ZM237.468 63.78C238.628 63.78 239.748 63.54 240.827 63.06C241.948 62.58 242.868 62 243.588 61.32L243.768 45.66C242.608 45.18 241.348 44.94 239.988 44.94C238.268 44.94 236.748 45.48 235.428 46.56C234.108 47.6 233.088 49 232.368 50.76C231.648 52.48 231.288 54.32 231.288 56.28C231.288 58.72 231.828 60.58 232.908 61.86C233.988 63.14 235.508 63.78 237.468 63.78ZM260.736 69.36C259.976 69.36 259.296 69.08 258.696 68.52C258.136 67.96 257.856 67.32 257.856 66.6V42.24C257.856 41.44 258.156 40.76 258.756 40.2C259.356 39.64 260.056 39.36 260.856 39.36C261.616 39.36 262.256 39.64 262.776 40.2C263.336 40.76 263.616 41.44 263.616 42.24V46.8C264.736 44.4 266.156 42.58 267.876 41.34C269.596 40.06 271.476 39.42 273.516 39.42C275.756 39.42 277.536 39.94 278.856 40.98C280.176 42.02 281.136 43.74 281.736 46.14C282.336 48.5 282.636 51.78 282.636 55.98L282.576 66.48C282.576 67.24 282.316 67.92 281.796 68.52C281.276 69.08 280.616 69.36 279.816 69.36C279.056 69.36 278.376 69.08 277.776 68.52C277.216 67.92 276.936 67.26 276.936 66.54V56.58C276.936 53.46 276.796 51.06 276.516 49.38C276.236 47.7 275.816 46.56 275.256 45.96C274.696 45.32 273.936 45 272.976 45C271.776 45 270.576 45.52 269.376 46.56C268.176 47.56 267.056 49 266.016 50.88C265.096 52.52 264.456 54.12 264.096 55.68C263.736 57.24 263.556 59.12 263.556 61.32V66.36C263.556 67.24 263.296 67.96 262.776 68.52C262.296 69.08 261.616 69.36 260.736 69.36ZM299.254 69.3C297.214 69.3 295.374 68.78 293.734 67.74C292.134 66.66 290.854 65.1 289.894 63.06C288.974 61.02 288.514 58.58 288.514 55.74C288.514 52.3 289.054 49.36 290.134 46.92C291.214 44.48 292.714 42.64 294.634 41.4C296.554 40.12 298.774 39.48 301.294 39.48C303.294 39.48 305.434 39.94 307.714 40.86L308.014 31.56C308.054 30.76 308.354 30.08 308.914 29.52C309.514 28.92 310.214 28.62 311.014 28.62C311.774 28.62 312.434 28.92 312.994 29.52C313.594 30.08 313.874 30.8 313.834 31.68L312.994 66.6C312.954 67.4 312.654 68.06 312.094 68.58C311.534 69.1 310.854 69.36 310.054 69.36C309.294 69.36 308.634 69.14 308.074 68.7C307.554 68.26 307.294 67.68 307.294 66.96V65.88C306.254 66.84 305.034 67.66 303.634 68.34C302.234 68.98 300.774 69.3 299.254 69.3ZM299.734 63.9C301.094 63.9 302.354 63.62 303.514 63.06C304.714 62.46 305.654 61.74 306.334 60.9C307.014 60.06 307.374 59.28 307.414 58.56L307.654 46.74C306.934 46.26 306.014 45.84 304.894 45.48C303.774 45.08 302.694 44.88 301.654 44.88C299.214 44.88 297.374 45.8 296.134 47.64C294.894 49.44 294.274 52.08 294.274 55.56C294.274 58.44 294.754 60.56 295.714 61.92C296.714 63.24 298.054 63.9 299.734 63.9ZM334.742 69.36C331.902 69.36 329.342 68.76 327.062 67.56C324.822 66.32 323.062 64.58 321.782 62.34C320.502 60.06 319.862 57.38 319.862 54.3C319.862 51.78 320.422 49.38 321.542 47.1C322.702 44.78 324.302 42.92 326.342 41.52C328.422 40.12 330.782 39.42 333.422 39.42C335.862 39.42 337.942 39.92 339.662 40.92C341.422 41.88 342.742 43.04 343.622 44.4C344.502 45.76 344.942 46.98 344.942 48.06C344.942 48.58 344.782 49.08 344.462 49.56C344.142 50.04 343.682 50.46 343.082 50.82L327.002 60.06C327.562 61.3 328.542 62.26 329.942 62.94C331.382 63.62 332.982 63.96 334.742 63.96C337.062 63.96 339.042 63.1 340.682 61.38C341.322 60.74 341.982 60.42 342.662 60.42C343.462 60.42 344.122 60.68 344.642 61.2C345.202 61.72 345.482 62.36 345.482 63.12C345.482 63.76 345.242 64.36 344.762 64.92C343.642 66.16 342.142 67.22 340.262 68.1C338.422 68.94 336.582 69.36 334.742 69.36ZM339.002 47.34C338.522 46.5 337.842 45.88 336.962 45.48C336.082 45.04 335.042 44.82 333.842 44.82C331.562 44.82 329.642 45.6 328.082 47.16C326.562 48.72 325.682 50.64 325.442 52.92C325.362 53.52 325.322 54.24 325.322 55.08L339.002 47.34ZM362.415 69.36C360.015 69.36 357.815 68.78 355.815 67.62C353.815 66.46 352.235 64.88 351.075 62.88C349.915 60.84 349.335 58.62 349.335 56.22C349.335 53.5 349.975 50.84 351.255 48.24C352.535 45.64 354.215 43.52 356.295 41.88C358.375 40.24 360.575 39.42 362.895 39.42C365.015 39.42 366.715 39.76 367.995 40.44C369.315 41.08 370.595 42.12 371.835 43.56C372.435 44.2 372.735 44.9 372.735 45.66C372.735 46.42 372.455 47.08 371.895 47.64C371.335 48.16 370.655 48.42 369.855 48.42C369.335 48.42 368.915 48.34 368.595 48.18C368.315 48.02 367.975 47.7 367.575 47.22C366.895 46.46 366.215 45.88 365.535 45.48C364.895 45.08 364.035 44.88 362.955 44.88C361.715 44.88 360.455 45.42 359.175 46.5C357.935 47.58 356.915 49 356.115 50.76C355.355 52.48 354.975 54.26 354.975 56.1C354.975 57.7 355.315 59.1 355.995 60.3C356.715 61.46 357.635 62.36 358.755 63C359.875 63.6 361.055 63.9 362.295 63.9C363.895 63.9 365.195 63.6 366.195 63C367.235 62.4 368.155 61.58 368.955 60.54C369.715 59.54 370.575 59.04 371.535 59.04C372.295 59.04 372.955 59.32 373.515 59.88C374.075 60.4 374.355 61 374.355 61.68C374.355 62.48 374.135 63.16 373.695 63.72C372.535 65.28 370.955 66.62 368.955 67.74C366.955 68.82 364.775 69.36 362.415 69.36ZM384.658 69.42C383.898 69.42 383.218 69.14 382.618 68.58C382.058 68.02 381.778 67.36 381.778 66.6V45.18H377.038C376.238 45.18 375.558 44.9 374.998 44.34C374.438 43.74 374.158 43.06 374.158 42.3C374.158 41.42 374.458 40.72 375.058 40.2C375.658 39.64 376.358 39.36 377.158 39.36H381.778V32.94C381.778 32.18 382.058 31.5 382.618 30.9C383.178 30.3 383.858 30 384.658 30C385.498 30 386.178 30.3 386.698 30.9C387.258 31.46 387.538 32.14 387.538 32.94V39.36H392.638C393.438 39.36 394.118 39.64 394.678 40.2C395.238 40.76 395.518 41.46 395.518 42.3C395.518 43.06 395.238 43.74 394.678 44.34C394.118 44.9 393.438 45.18 392.638 45.18H387.538V66.6C387.538 67.36 387.258 68.02 386.698 68.58C386.138 69.14 385.458 69.42 384.658 69.42Z"/>
</mask>
<path d="M96.88 69.36C96 69.36 95.28 69.08 94.72 68.52C94.16 67.92 93.88 67.22 93.88 66.42C93.88 66.1 93.94 65.76 94.06 65.4C94.18 65 94.34 64.7 94.54 64.5L107.92 48.6L95.74 33.3C95.26 32.66 95.02 32.04 95.02 31.44C95.02 30.64 95.32 29.96 95.92 29.4C96.56 28.8 97.28 28.5 98.08 28.5C99 28.5 99.76 28.86 100.36 29.58L111.82 43.92L123.88 29.58C124.16 29.22 124.5 28.96 124.9 28.8C125.34 28.6 125.76 28.5 126.16 28.5C126.96 28.5 127.66 28.8 128.26 29.4C128.86 30 129.16 30.68 129.16 31.44C129.16 32.12 128.92 32.76 128.44 33.36L115.6 48.66L128.26 64.62C128.62 65.06 128.8 65.66 128.8 66.42C128.8 67.22 128.52 67.92 127.96 68.52C127.4 69.08 126.72 69.36 125.92 69.36C124.96 69.36 124.18 69 123.58 68.28L111.64 53.4L99.1 68.28C98.5 69 97.76 69.36 96.88 69.36ZM138.342 69C137.502 69 136.782 68.72 136.182 68.16C135.622 67.56 135.342 66.84 135.342 66C135.342 65.16 135.622 64.46 136.182 63.9C136.782 63.3 137.502 63 138.342 63H142.542V34.8H138.342C137.502 34.8 136.782 34.5 136.182 33.9C135.622 33.3 135.342 32.58 135.342 31.74C135.342 30.9 135.622 30.2 136.182 29.64C136.782 29.08 137.502 28.8 138.342 28.8H152.682C153.522 28.8 154.222 29.08 154.782 29.64C155.342 30.2 155.622 30.9 155.622 31.74C155.622 32.58 155.342 33.3 154.782 33.9C154.222 34.5 153.522 34.8 152.682 34.8H148.542V63H152.682C153.562 63 154.262 63.3 154.782 63.9C155.342 64.46 155.622 65.16 155.622 66C155.622 66.84 155.342 67.56 154.782 68.16C154.222 68.72 153.522 69 152.682 69H138.342ZM172.978 69.36C172.338 69.36 171.758 69.2 171.238 68.88C170.718 68.52 170.358 68.02 170.158 67.38L158.458 32.76C158.298 32.28 158.218 31.82 158.218 31.38C158.218 30.54 158.498 29.86 159.058 29.34C159.618 28.82 160.358 28.56 161.278 28.56C161.918 28.56 162.478 28.74 162.958 29.1C163.438 29.42 163.798 29.92 164.038 30.6L173.218 57.78L184.018 30.42C184.298 29.82 184.678 29.36 185.158 29.04C185.638 28.72 186.178 28.56 186.778 28.56C187.618 28.56 188.318 28.86 188.878 29.46C189.438 30.02 189.718 30.68 189.718 31.44C189.718 31.84 189.638 32.22 189.478 32.58L175.738 67.5C175.258 68.74 174.338 69.36 172.978 69.36ZM197.523 69.36C196.723 69.36 196.023 69.08 195.423 68.52C194.823 67.96 194.523 67.26 194.523 66.42V32.16C194.523 31.04 194.663 30.24 194.943 29.76C195.223 29.24 195.743 28.9 196.503 28.74C197.303 28.54 198.583 28.44 200.343 28.44C207.783 28.44 213.343 29.54 217.023 31.74C220.743 33.94 222.603 37.12 222.603 41.28C222.603 44.64 221.423 47.4 219.063 49.56C216.703 51.72 213.843 53.3 210.483 54.3C207.123 55.3 203.783 55.86 200.463 55.98V66.42C200.463 67.26 200.183 67.96 199.623 68.52C199.063 69.08 198.363 69.36 197.523 69.36ZM200.463 50.1C204.383 49.86 208.063 49.08 211.503 47.76C214.943 46.4 216.663 44.24 216.663 41.28C216.663 39.08 215.323 37.38 212.643 36.18C210.003 34.98 206.223 34.38 201.303 34.38H200.463V50.1ZM246.588 69.96C245.788 69.96 245.128 69.74 244.608 69.3C244.128 68.86 243.888 68.28 243.888 67.56V66.72C242.248 68.48 239.968 69.36 237.048 69.36C234.848 69.36 232.868 68.82 231.107 67.74C229.348 66.66 227.968 65.14 226.968 63.18C225.968 61.18 225.468 58.92 225.468 56.4C225.468 53.6 226.068 50.9 227.268 48.3C228.468 45.66 230.148 43.52 232.308 41.88C234.508 40.24 237.028 39.42 239.868 39.42C241.708 39.42 243.368 39.68 244.848 40.2C246.328 40.68 247.868 41.28 249.468 42V66.96C249.468 67.76 249.188 68.46 248.628 69.06C248.068 69.66 247.388 69.96 246.588 69.96ZM237.468 63.78C238.628 63.78 239.748 63.54 240.827 63.06C241.948 62.58 242.868 62 243.588 61.32L243.768 45.66C242.608 45.18 241.348 44.94 239.988 44.94C238.268 44.94 236.748 45.48 235.428 46.56C234.108 47.6 233.088 49 232.368 50.76C231.648 52.48 231.288 54.32 231.288 56.28C231.288 58.72 231.828 60.58 232.908 61.86C233.988 63.14 235.508 63.78 237.468 63.78ZM260.736 69.36C259.976 69.36 259.296 69.08 258.696 68.52C258.136 67.96 257.856 67.32 257.856 66.6V42.24C257.856 41.44 258.156 40.76 258.756 40.2C259.356 39.64 260.056 39.36 260.856 39.36C261.616 39.36 262.256 39.64 262.776 40.2C263.336 40.76 263.616 41.44 263.616 42.24V46.8C264.736 44.4 266.156 42.58 267.876 41.34C269.596 40.06 271.476 39.42 273.516 39.42C275.756 39.42 277.536 39.94 278.856 40.98C280.176 42.02 281.136 43.74 281.736 46.14C282.336 48.5 282.636 51.78 282.636 55.98L282.576 66.48C282.576 67.24 282.316 67.92 281.796 68.52C281.276 69.08 280.616 69.36 279.816 69.36C279.056 69.36 278.376 69.08 277.776 68.52C277.216 67.92 276.936 67.26 276.936 66.54V56.58C276.936 53.46 276.796 51.06 276.516 49.38C276.236 47.7 275.816 46.56 275.256 45.96C274.696 45.32 273.936 45 272.976 45C271.776 45 270.576 45.52 269.376 46.56C268.176 47.56 267.056 49 266.016 50.88C265.096 52.52 264.456 54.12 264.096 55.68C263.736 57.24 263.556 59.12 263.556 61.32V66.36C263.556 67.24 263.296 67.96 262.776 68.52C262.296 69.08 261.616 69.36 260.736 69.36ZM299.254 69.3C297.214 69.3 295.374 68.78 293.734 67.74C292.134 66.66 290.854 65.1 289.894 63.06C288.974 61.02 288.514 58.58 288.514 55.74C288.514 52.3 289.054 49.36 290.134 46.92C291.214 44.48 292.714 42.64 294.634 41.4C296.554 40.12 298.774 39.48 301.294 39.48C303.294 39.48 305.434 39.94 307.714 40.86L308.014 31.56C308.054 30.76 308.354 30.08 308.914 29.52C309.514 28.92 310.214 28.62 311.014 28.62C311.774 28.62 312.434 28.92 312.994 29.52C313.594 30.08 313.874 30.8 313.834 31.68L312.994 66.6C312.954 67.4 312.654 68.06 312.094 68.58C311.534 69.1 310.854 69.36 310.054 69.36C309.294 69.36 308.634 69.14 308.074 68.7C307.554 68.26 307.294 67.68 307.294 66.96V65.88C306.254 66.84 305.034 67.66 303.634 68.34C302.234 68.98 300.774 69.3 299.254 69.3ZM299.734 63.9C301.094 63.9 302.354 63.62 303.514 63.06C304.714 62.46 305.654 61.74 306.334 60.9C307.014 60.06 307.374 59.28 307.414 58.56L307.654 46.74C306.934 46.26 306.014 45.84 304.894 45.48C303.774 45.08 302.694 44.88 301.654 44.88C299.214 44.88 297.374 45.8 296.134 47.64C294.894 49.44 294.274 52.08 294.274 55.56C294.274 58.44 294.754 60.56 295.714 61.92C296.714 63.24 298.054 63.9 299.734 63.9ZM334.742 69.36C331.902 69.36 329.342 68.76 327.062 67.56C324.822 66.32 323.062 64.58 321.782 62.34C320.502 60.06 319.862 57.38 319.862 54.3C319.862 51.78 320.422 49.38 321.542 47.1C322.702 44.78 324.302 42.92 326.342 41.52C328.422 40.12 330.782 39.42 333.422 39.42C335.862 39.42 337.942 39.92 339.662 40.92C341.422 41.88 342.742 43.04 343.622 44.4C344.502 45.76 344.942 46.98 344.942 48.06C344.942 48.58 344.782 49.08 344.462 49.56C344.142 50.04 343.682 50.46 343.082 50.82L327.002 60.06C327.562 61.3 328.542 62.26 329.942 62.94C331.382 63.62 332.982 63.96 334.742 63.96C337.062 63.96 339.042 63.1 340.682 61.38C341.322 60.74 341.982 60.42 342.662 60.42C343.462 60.42 344.122 60.68 344.642 61.2C345.202 61.72 345.482 62.36 345.482 63.12C345.482 63.76 345.242 64.36 344.762 64.92C343.642 66.16 342.142 67.22 340.262 68.1C338.422 68.94 336.582 69.36 334.742 69.36ZM339.002 47.34C338.522 46.5 337.842 45.88 336.962 45.48C336.082 45.04 335.042 44.82 333.842 44.82C331.562 44.82 329.642 45.6 328.082 47.16C326.562 48.72 325.682 50.64 325.442 52.92C325.362 53.52 325.322 54.24 325.322 55.08L339.002 47.34ZM362.415 69.36C360.015 69.36 357.815 68.78 355.815 67.62C353.815 66.46 352.235 64.88 351.075 62.88C349.915 60.84 349.335 58.62 349.335 56.22C349.335 53.5 349.975 50.84 351.255 48.24C352.535 45.64 354.215 43.52 356.295 41.88C358.375 40.24 360.575 39.42 362.895 39.42C365.015 39.42 366.715 39.76 367.995 40.44C369.315 41.08 370.595 42.12 371.835 43.56C372.435 44.2 372.735 44.9 372.735 45.66C372.735 46.42 372.455 47.08 371.895 47.64C371.335 48.16 370.655 48.42 369.855 48.42C369.335 48.42 368.915 48.34 368.595 48.18C368.315 48.02 367.975 47.7 367.575 47.22C366.895 46.46 366.215 45.88 365.535 45.48C364.895 45.08 364.035 44.88 362.955 44.88C361.715 44.88 360.455 45.42 359.175 46.5C357.935 47.58 356.915 49 356.115 50.76C355.355 52.48 354.975 54.26 354.975 56.1C354.975 57.7 355.315 59.1 355.995 60.3C356.715 61.46 357.635 62.36 358.755 63C359.875 63.6 361.055 63.9 362.295 63.9C363.895 63.9 365.195 63.6 366.195 63C367.235 62.4 368.155 61.58 368.955 60.54C369.715 59.54 370.575 59.04 371.535 59.04C372.295 59.04 372.955 59.32 373.515 59.88C374.075 60.4 374.355 61 374.355 61.68C374.355 62.48 374.135 63.16 373.695 63.72C372.535 65.28 370.955 66.62 368.955 67.74C366.955 68.82 364.775 69.36 362.415 69.36ZM384.658 69.42C383.898 69.42 383.218 69.14 382.618 68.58C382.058 68.02 381.778 67.36 381.778 66.6V45.18H377.038C376.238 45.18 375.558 44.9 374.998 44.34C374.438 43.74 374.158 43.06 374.158 42.3C374.158 41.42 374.458 40.72 375.058 40.2C375.658 39.64 376.358 39.36 377.158 39.36H381.778V32.94C381.778 32.18 382.058 31.5 382.618 30.9C383.178 30.3 383.858 30 384.658 30C385.498 30 386.178 30.3 386.698 30.9C387.258 31.46 387.538 32.14 387.538 32.94V39.36H392.638C393.438 39.36 394.118 39.64 394.678 40.2C395.238 40.76 395.518 41.46 395.518 42.3C395.518 43.06 395.238 43.74 394.678 44.34C394.118 44.9 393.438 45.18 392.638 45.18H387.538V66.6C387.538 67.36 387.258 68.02 386.698 68.58C386.138 69.14 385.458 69.42 384.658 69.42Z" fill="black"/>
<path d="M94.72 68.52L88.1405 74.6609L88.2463 74.7743L88.356 74.884L94.72 68.52ZM94.06 65.4L102.598 68.2461L102.641 68.1167L102.68 67.9861L94.06 65.4ZM94.54 64.5L100.904 70.864L101.177 70.5906L101.426 70.2948L94.54 64.5ZM107.92 48.6L114.806 54.3948L119.55 48.7582L114.961 42.9946L107.92 48.6ZM95.74 33.3L88.54 38.7L88.6179 38.8038L88.6987 38.9054L95.74 33.3ZM95.92 29.4L102.061 35.9795L102.068 35.9727L102.075 35.9658L95.92 29.4ZM100.36 29.58L107.391 23.9613L107.333 23.8892L107.274 23.8183L100.36 29.58ZM111.82 43.92L104.789 49.5387L111.642 58.114L118.708 49.7128L111.82 43.92ZM123.88 29.58L130.768 35.3728L130.879 35.2412L130.984 35.1054L123.88 29.58ZM124.9 28.8L128.243 37.1563L128.435 37.0792L128.624 36.9933L124.9 28.8ZM128.26 29.4L134.624 23.036L134.624 23.036L128.26 29.4ZM128.44 33.36L135.334 39.1456L135.402 39.0647L135.468 38.9823L128.44 33.36ZM115.6 48.66L108.706 42.8744L103.985 48.4997L108.549 54.2531L115.6 48.66ZM128.26 64.62L121.209 70.2131L121.251 70.2664L121.294 70.3191L128.26 64.62ZM127.96 68.52L134.324 74.884L134.434 74.7743L134.54 74.6609L127.96 68.52ZM123.58 68.28L116.56 73.9126L116.613 73.9776L116.666 74.0417L123.58 68.28ZM111.64 53.4L118.66 47.7674L111.81 39.2318L104.758 47.6002L111.64 53.4ZM99.1 68.28L92.218 62.4802L92.2019 62.4992L92.186 62.5183L99.1 68.28ZM96.88 60.36C97.4021 60.36 98.1277 60.4453 98.942 60.762C99.7748 61.0858 100.504 61.5764 101.084 62.156L88.356 74.884C90.7989 77.3268 93.9037 78.36 96.88 78.36V60.36ZM101.299 62.3791C101.712 62.8214 102.137 63.4295 102.446 64.2025C102.757 64.9794 102.88 65.7458 102.88 66.42H84.88C84.88 69.5642 86.0697 72.4422 88.1405 74.6609L101.299 62.3791ZM102.88 66.42C102.88 67.2279 102.729 67.8542 102.598 68.2461L85.5219 62.5539C85.1512 63.6658 84.88 64.9721 84.88 66.42H102.88ZM102.68 67.9861C102.561 68.3832 102.14 69.6276 100.904 70.864L88.176 58.136C86.5397 59.7724 85.7987 61.6168 85.4396 62.8139L102.68 67.9861ZM101.426 70.2948L114.806 54.3948L101.034 42.8052L87.6538 58.7052L101.426 70.2948ZM114.961 42.9946L102.781 27.6946L88.6987 38.9054L100.879 54.2054L114.961 42.9946ZM102.94 27.9C103.242 28.3022 104.02 29.534 104.02 31.44H86.02C86.02 34.546 87.2784 37.0178 88.54 38.7L102.94 27.9ZM104.02 31.44C104.02 32.1941 103.872 33.0728 103.479 33.9628C103.089 34.8475 102.558 35.5159 102.061 35.9795L89.7791 22.8205C87.4089 25.0327 86.02 28.0731 86.02 31.44H104.02ZM102.075 35.9658C101.706 36.3118 101.153 36.7197 100.402 37.0327C99.6363 37.3515 98.8371 37.5 98.08 37.5V19.5C94.7638 19.5 91.8972 20.8348 89.7645 22.8342L102.075 35.9658ZM98.08 37.5C97.3344 37.5 96.4212 37.346 95.4872 36.9036C94.5579 36.4634 93.8858 35.8694 93.446 35.3417L107.274 23.8183C105.001 21.0908 101.728 19.5 98.08 19.5V37.5ZM93.3293 35.1987L104.789 49.5387L118.851 38.3013L107.391 23.9613L93.3293 35.1987ZM118.708 49.7128L130.768 35.3728L116.992 23.7872L104.932 38.1272L118.708 49.7128ZM130.984 35.1054C130.343 35.9293 129.413 36.688 128.243 37.1563L121.557 20.4437C119.587 21.232 117.977 22.5107 116.776 24.0546L130.984 35.1054ZM128.624 36.9933C128.134 37.2162 127.284 37.5 126.16 37.5V19.5C124.236 19.5 122.546 19.9837 121.176 20.6067L128.624 36.9933ZM126.16 37.5C125.404 37.5 124.566 37.3515 123.74 36.9973C122.924 36.6476 122.313 36.1813 121.896 35.764L134.624 23.036C132.45 20.8618 129.503 19.5 126.16 19.5V37.5ZM121.896 35.764C121.519 35.3874 121.059 34.8046 120.701 33.9928C120.334 33.162 120.16 32.282 120.16 31.44H138.16C138.16 28.0052 136.697 25.1088 134.624 23.036L121.896 35.764ZM120.16 31.44C120.16 29.8125 120.791 28.5146 121.412 27.7377L135.468 38.9823C137.049 37.0054 138.16 34.4275 138.16 31.44H120.16ZM121.546 27.5744L108.706 42.8744L122.494 54.4456L135.334 39.1456L121.546 27.5744ZM108.549 54.2531L121.209 70.2131L135.311 59.0269L122.651 43.0669L108.549 54.2531ZM121.294 70.3191C119.954 68.6809 119.8 67.0357 119.8 66.42H137.8C137.8 64.2843 137.286 61.4391 135.226 58.9209L121.294 70.3191ZM119.8 66.42C119.8 65.7458 119.923 64.9794 120.234 64.2025C120.543 63.4295 120.968 62.8214 121.381 62.3791L134.54 74.6609C136.61 72.4422 137.8 69.5642 137.8 66.42H119.8ZM121.596 62.156C122.091 61.6611 122.762 61.1742 123.603 60.8279C124.442 60.4823 125.248 60.36 125.92 60.36V78.36C129.08 78.36 132.057 77.151 134.324 74.884L121.596 62.156ZM125.92 60.36C126.588 60.36 127.462 60.4916 128.387 60.9184C129.317 61.3479 130.017 61.9464 130.494 62.5183L116.666 74.0417C119.023 76.8705 122.364 78.36 125.92 78.36V60.36ZM130.6 62.6474L118.66 47.7674L104.62 59.0326L116.56 73.9126L130.6 62.6474ZM104.758 47.6002L92.218 62.4802L105.982 74.0798L118.522 59.1998L104.758 47.6002ZM92.186 62.5183C92.5888 62.035 93.2327 61.447 94.1578 60.9969C95.0986 60.5392 96.0525 60.36 96.88 60.36V78.36C100.623 78.36 103.831 76.6611 106.014 74.0417L92.186 62.5183ZM136.182 68.16L129.602 74.3009L129.814 74.5277L130.041 74.7395L136.182 68.16ZM136.182 63.9L142.546 70.264L142.546 70.264L136.182 63.9ZM142.542 63V72H151.542V63H142.542ZM142.542 34.8H151.542V25.8H142.542V34.8ZM136.182 33.9L129.602 40.0409L129.708 40.1543L129.818 40.264L136.182 33.9ZM136.182 29.64L130.041 23.0605L129.928 23.1663L129.818 23.276L136.182 29.64ZM148.542 34.8V25.8H139.542V34.8H148.542ZM148.542 63H139.542V72H148.542V63ZM154.782 63.9L147.981 69.7944L148.191 70.037L148.418 70.264L154.782 63.9ZM154.782 68.16L161.146 74.524L161.256 74.4143L161.361 74.3009L154.782 68.16ZM138.342 60C138.94 60 139.666 60.1035 140.434 60.402C141.205 60.7018 141.84 61.1295 142.323 61.5805L130.041 74.7395C132.35 76.8949 135.282 78 138.342 78V60ZM142.761 62.0191C143.212 62.5024 143.64 63.1369 143.94 63.908C144.238 64.6754 144.342 65.402 144.342 66H126.342C126.342 69.0603 127.447 71.9915 129.602 74.3009L142.761 62.0191ZM144.342 66C144.342 66.5945 144.239 67.3596 143.908 68.1875C143.573 69.0259 143.083 69.7264 142.546 70.264L129.818 57.536C127.46 59.8942 126.342 62.9337 126.342 66H144.342ZM142.546 70.264C142.088 70.7217 141.451 71.1922 140.633 71.5327C139.814 71.8739 139.018 72 138.342 72V54C135.088 54 132.086 55.2675 129.818 57.536L142.546 70.264ZM138.342 72H142.542V54H138.342V72ZM151.542 63V34.8H133.542V63H151.542ZM142.542 25.8H138.342V43.8H142.542V25.8ZM138.342 25.8C139.018 25.8 139.814 25.9261 140.633 26.2673C141.451 26.6078 142.088 27.0783 142.546 27.536L129.818 40.264C132.086 42.5325 135.088 43.8 138.342 43.8V25.8ZM142.761 27.7591C143.212 28.2424 143.64 28.8769 143.94 29.648C144.238 30.4154 144.342 31.142 144.342 31.74H126.342C126.342 34.8003 127.447 37.7315 129.602 40.0409L142.761 27.7591ZM144.342 31.74C144.342 32.3345 144.239 33.0996 143.908 33.9275C143.573 34.7659 143.083 35.4664 142.546 36.004L129.818 23.276C127.46 25.6342 126.342 28.6737 126.342 31.74H144.342ZM142.323 36.2195C141.84 36.6705 141.205 37.0982 140.434 37.398C139.666 37.6965 138.94 37.8 138.342 37.8V19.8C135.282 19.8 132.35 20.9051 130.041 23.0605L142.323 36.2195ZM138.342 37.8H152.682V19.8H138.342V37.8ZM152.682 37.8C152.087 37.8 151.322 37.6974 150.494 37.3663C149.656 37.0309 148.955 36.5415 148.418 36.004L161.146 23.276C158.788 20.9179 155.748 19.8 152.682 19.8V37.8ZM148.418 36.004C147.88 35.4664 147.391 34.7659 147.056 33.9275C146.724 33.0996 146.622 32.3345 146.622 31.74H164.622C164.622 28.6737 163.504 25.6342 161.146 23.276L148.418 36.004ZM146.622 31.74C146.622 31.142 146.725 30.4154 147.024 29.648C147.324 28.8769 147.751 28.2424 148.202 27.7591L161.361 40.0409C163.517 37.7315 164.622 34.8003 164.622 31.74H146.622ZM148.202 27.7591C148.708 27.2176 149.406 26.6822 150.292 26.3027C151.172 25.9253 152.009 25.8 152.682 25.8V43.8C155.95 43.8 159.054 42.5125 161.361 40.0409L148.202 27.7591ZM152.682 25.8H148.542V43.8H152.682V25.8ZM139.542 34.8V63H157.542V34.8H139.542ZM148.542 72H152.682V54H148.542V72ZM152.682 72C152.091 72 151.253 71.8963 150.322 71.4973C149.367 71.0881 148.573 70.478 147.981 69.7944L161.583 58.0056C159.156 55.2053 155.855 54 152.682 54V72ZM148.418 70.264C147.88 69.7264 147.391 69.0259 147.056 68.1875C146.724 67.3596 146.622 66.5945 146.622 66H164.622C164.622 62.9337 163.504 59.8942 161.146 57.536L148.418 70.264ZM146.622 66C146.622 65.402 146.725 64.6754 147.024 63.908C147.324 63.1369 147.751 62.5024 148.202 62.0191L161.361 74.3009C163.517 71.9915 164.622 69.0603 164.622 66H146.622ZM148.418 61.796C148.955 61.2585 149.656 60.7691 150.494 60.4337C151.322 60.1026 152.087 60 152.682 60V78C155.748 78 158.788 76.8821 161.146 74.524L148.418 61.796ZM152.682 60H138.342V78H152.682V60ZM171.238 68.88L166.115 76.2797L166.315 76.4178L166.521 76.5449L171.238 68.88ZM170.158 67.38L178.749 64.6955L178.718 64.5966L178.685 64.4985L170.158 67.38ZM158.458 32.76L149.92 35.606L149.926 35.6238L149.932 35.6415L158.458 32.76ZM159.058 29.34L165.182 35.9351L165.182 35.9351L159.058 29.34ZM162.958 29.1L157.558 36.3L157.758 36.4499L157.966 36.5884L162.958 29.1ZM164.038 30.6L172.565 27.7201L172.546 27.6622L172.525 27.6046L164.038 30.6ZM173.218 57.78L164.691 60.6599L172.561 83.9584L181.59 61.0845L173.218 57.78ZM184.018 30.42L175.863 26.614L175.747 26.8615L175.647 27.1155L184.018 30.42ZM185.158 29.04L190.151 36.5285L190.151 36.5284L185.158 29.04ZM188.878 29.46L182.299 35.6009L182.405 35.7143L182.514 35.824L188.878 29.46ZM189.478 32.58L181.254 28.9247L181.175 29.1031L181.103 29.2847L189.478 32.58ZM175.738 67.5L167.363 64.2047L167.354 64.2278L167.345 64.2511L175.738 67.5ZM172.978 60.36C173.92 60.36 174.987 60.6192 175.955 61.2151L166.521 76.5449C168.53 77.7808 170.757 78.36 172.978 78.36V60.36ZM176.361 61.4803C176.922 61.8687 177.447 62.3713 177.882 62.9763C178.314 63.5759 178.586 64.1751 178.749 64.6955L161.568 70.0645C162.328 72.4952 163.843 74.7067 166.115 76.2797L176.361 61.4803ZM178.685 64.4985L166.985 29.8785L149.932 35.6415L161.632 70.2615L178.685 64.4985ZM166.996 29.914C167.097 30.2166 167.218 30.7199 167.218 31.38H149.218C149.218 32.9201 149.499 34.3434 149.92 35.606L166.996 29.914ZM167.218 31.38C167.218 31.9696 167.117 32.7761 166.75 33.6667C166.376 34.5767 165.817 35.3458 165.182 35.9351L152.934 22.7449C150.347 25.1469 149.218 28.3134 149.218 31.38H167.218ZM165.182 35.9351C164.533 36.5385 163.781 36.9776 163.017 37.2461C162.278 37.5055 161.663 37.56 161.278 37.56V19.56C158.576 19.56 155.486 20.3753 152.934 22.7449L165.182 35.9351ZM161.278 37.56C160.109 37.56 158.743 37.1887 157.558 36.3L168.358 21.9C166.213 20.2913 163.727 19.56 161.278 19.56V37.56ZM157.966 36.5884C156.458 35.583 155.795 34.2857 155.551 33.5954L172.525 27.6046C171.802 25.5543 170.419 23.257 167.951 21.6116L157.966 36.5884ZM155.511 33.4799L164.691 60.6599L181.745 54.9001L172.565 27.7201L155.511 33.4799ZM181.59 61.0845L192.39 33.7245L175.647 27.1155L164.847 54.4755L181.59 61.0845ZM192.174 34.226C191.862 34.895 191.235 35.8053 190.151 36.5285L180.166 21.5515C178.121 22.9147 176.735 24.745 175.863 26.614L192.174 34.226ZM190.151 36.5284C189.091 37.235 187.88 37.56 186.778 37.56V19.56C184.477 19.56 182.186 20.205 180.166 21.5516L190.151 36.5284ZM186.778 37.56C186.106 37.56 185.269 37.4347 184.388 37.0573C183.503 36.6778 182.804 36.1424 182.299 35.6009L195.458 23.3191C193.151 20.8475 190.047 19.56 186.778 19.56V37.56ZM182.514 35.824C182.063 35.3722 181.58 34.7303 181.223 33.8899C180.863 33.0423 180.718 32.1941 180.718 31.44H198.718C198.718 28.1834 197.411 25.2647 195.242 23.096L182.514 35.824ZM180.718 31.44C180.718 30.6006 180.895 29.7335 181.254 28.9247L197.703 36.2352C198.382 34.7065 198.718 33.0794 198.718 31.44H180.718ZM181.103 29.2847L167.363 64.2047L184.113 70.7953L197.853 35.8753L181.103 29.2847ZM167.345 64.2511C167.635 63.5029 168.311 62.3399 169.659 61.4316C170.991 60.5338 172.275 60.36 172.978 60.36V78.36C175.042 78.36 177.466 77.8762 179.718 76.3584C181.986 74.8301 183.362 72.7371 184.131 70.7489L167.345 64.2511ZM195.423 68.52L189.283 75.0995L189.283 75.0995L195.423 68.52ZM194.943 29.76L202.717 34.2948L202.795 34.1621L202.868 34.0269L194.943 29.76ZM196.503 28.74L198.358 37.547L198.523 37.5122L198.686 37.4713L196.503 28.74ZM217.023 31.74L212.405 39.4648L212.424 39.4758L212.442 39.4867L217.023 31.74ZM219.063 49.56L225.14 56.1991L225.14 56.1991L219.063 49.56ZM210.483 54.3L213.051 62.9261L213.051 62.9261L210.483 54.3ZM200.463 55.98L200.138 46.9859L191.463 47.2994V55.98H200.463ZM199.623 68.52L205.987 74.884L205.987 74.884L199.623 68.52ZM200.463 50.1H191.463V59.6679L201.013 59.0832L200.463 50.1ZM211.503 47.76L214.728 56.1626L214.77 56.1463L214.812 56.1296L211.503 47.76ZM212.643 36.18L208.919 44.3733L208.942 44.3838L208.965 44.3942L212.643 36.18ZM200.463 34.38V25.38H191.463V34.38H200.463ZM197.523 60.36C198.198 60.36 198.964 60.4829 199.741 60.7937C200.514 61.1029 201.122 61.5277 201.564 61.9405L189.283 75.0995C191.501 77.1703 194.379 78.36 197.523 78.36V60.36ZM201.564 61.9405C202.106 62.4459 202.641 63.1443 203.021 64.0297C203.398 64.9104 203.523 65.7473 203.523 66.42H185.523C185.523 69.6883 186.811 72.7926 189.283 75.0995L201.564 61.9405ZM203.523 66.42V32.16H185.523V66.42H203.523ZM203.523 32.16C203.523 31.9401 203.54 32.0081 203.494 32.2714C203.469 32.4132 203.417 32.6626 203.311 32.9859C203.206 33.306 203.026 33.7667 202.717 34.2948L187.169 25.2252C185.614 27.8915 185.523 30.7629 185.523 32.16H203.523ZM202.868 34.0269C202.259 35.1579 201.397 36.0404 200.469 36.6477C199.591 37.2213 198.808 37.4521 198.358 37.547L194.649 19.933C192.168 20.4554 188.924 21.9553 187.019 25.4931L202.868 34.0269ZM198.686 37.4713C198.523 37.5121 198.443 37.5217 198.478 37.5166C198.508 37.5123 198.599 37.5006 198.764 37.4877C199.104 37.4611 199.618 37.44 200.343 37.44V19.44C198.483 19.44 196.262 19.5233 194.321 20.0087L198.686 37.4713ZM200.343 37.44C207.202 37.44 210.806 38.5087 212.405 39.4648L221.642 24.0152C215.881 20.5713 208.365 19.44 200.343 19.44V37.44ZM212.442 39.4867C213.214 39.9431 213.407 40.2624 213.44 40.3189C213.463 40.3593 213.603 40.5865 213.603 41.28H231.603C231.603 33.7893 227.933 27.7357 221.605 23.9933L212.442 39.4867ZM213.603 41.28C213.603 42.2581 213.381 42.5602 212.987 42.9209L225.14 56.1991C229.466 52.2398 231.603 47.0219 231.603 41.28H213.603ZM212.987 42.9209C211.725 44.0764 210.098 45.0246 207.916 45.6739L213.051 62.9261C217.589 61.5754 221.682 59.3636 225.14 56.1991L212.987 42.9209ZM207.916 45.6739C205.245 46.469 202.658 46.8948 200.138 46.9859L200.789 64.9741C204.909 64.8252 209.002 64.131 213.051 62.9261L207.916 45.6739ZM191.463 55.98V66.42H209.463V55.98H191.463ZM191.463 66.42C191.463 65.8255 191.566 65.0604 191.897 64.2325C192.233 63.3941 192.722 62.6936 193.259 62.156L205.987 74.884C208.346 72.5258 209.463 69.4863 209.463 66.42H191.463ZM193.259 62.156C193.797 61.6185 194.498 61.1291 195.336 60.7937C196.164 60.4626 196.929 60.36 197.523 60.36V78.36C200.59 78.36 203.629 77.2421 205.987 74.884L193.259 62.156ZM201.013 59.0832C205.789 58.7908 210.376 57.8323 214.728 56.1626L208.279 39.3574C205.751 40.3277 202.978 40.9292 199.913 41.1168L201.013 59.0832ZM214.812 56.1296C217.517 55.0605 220.295 53.387 222.414 50.7263C224.637 47.9344 225.663 44.6396 225.663 41.28H207.663C207.663 41.1388 207.686 40.852 207.809 40.484C207.936 40.1083 208.125 39.7746 208.333 39.5137C208.732 39.013 208.93 39.0995 208.195 39.3904L214.812 56.1296ZM225.663 41.28C225.663 34.3044 220.946 30.0365 216.321 27.9658L208.965 44.3942C209.43 44.602 209.083 44.5518 208.59 43.9264C208.33 43.5965 208.078 43.1649 207.901 42.6482C207.724 42.1334 207.663 41.6582 207.663 41.28H225.663ZM216.368 27.9867C212.014 26.0078 206.734 25.38 201.303 25.38V43.38C205.713 43.38 207.993 43.9522 208.919 44.3733L216.368 27.9867ZM201.303 25.38H200.463V43.38H201.303V25.38ZM191.463 34.38V50.1H209.463V34.38H191.463ZM244.608 69.3L238.526 75.9344L238.658 76.0551L238.794 76.1705L244.608 69.3ZM243.888 66.72H252.888V43.8597L237.303 60.5845L243.888 66.72ZM231.107 67.74L226.4 75.4109L226.4 75.4109L231.107 67.74ZM226.968 63.18L218.918 67.2049L218.934 67.2376L218.951 67.2702L226.968 63.18ZM227.268 48.3L235.439 52.0715L235.45 52.0479L235.461 52.0242L227.268 48.3ZM232.308 41.88L226.929 34.6643L226.897 34.688L226.865 34.712L232.308 41.88ZM244.848 40.2L241.864 48.6911L241.967 48.7273L242.071 48.761L244.848 40.2ZM249.468 42H258.468V36.1807L253.161 33.7927L249.468 42ZM248.628 69.06L242.048 62.9191L248.628 69.06ZM240.827 63.06L237.282 54.7877L237.227 54.8113L237.172 54.8357L240.827 63.06ZM243.588 61.32L249.767 67.8631L252.543 65.2414L252.587 61.4234L243.588 61.32ZM243.768 45.66L252.767 45.7634L252.837 39.6728L247.209 37.3438L243.768 45.66ZM235.428 46.56L240.997 53.6294L241.062 53.5781L241.127 53.5256L235.428 46.56ZM232.368 50.76L240.669 54.2352L240.684 54.2015L240.697 54.1677L232.368 50.76ZM232.908 61.86L226.029 67.6638L226.029 67.6638L232.908 61.86ZM246.588 60.96C247.526 60.96 249.041 61.2618 250.421 62.4295L238.794 76.1705C241.214 78.2182 244.049 78.96 246.588 78.96V60.96ZM250.689 62.6656C251.381 63.2999 251.982 64.1232 252.384 65.0938C252.777 66.0435 252.888 66.9114 252.888 67.56H234.888C234.888 70.506 235.978 73.599 238.526 75.9344L250.689 62.6656ZM252.888 67.56V66.72H234.888V67.56H252.888ZM237.303 60.5845C237.351 60.5326 237.422 60.4694 237.51 60.4101C237.598 60.351 237.67 60.318 237.707 60.3037C237.781 60.2752 237.61 60.36 237.048 60.36V78.36C241.889 78.36 246.773 76.825 250.472 72.8555L237.303 60.5845ZM237.048 60.36C236.396 60.36 236.065 60.2226 235.815 60.0691L226.4 75.4109C229.67 77.4174 233.299 78.36 237.048 78.36V60.36ZM235.815 60.0691C235.56 59.9127 235.283 59.6752 234.984 59.0898L218.951 67.2702C220.652 70.6048 223.135 73.4073 226.4 75.4109L235.815 60.0691ZM235.017 59.1551C234.718 58.5555 234.468 57.7017 234.468 56.4H216.468C216.468 60.1383 217.217 63.8045 218.918 67.2049L235.017 59.1551ZM234.468 56.4C234.468 54.9324 234.772 53.5167 235.439 52.0715L219.096 44.5285C217.363 48.2833 216.468 52.2676 216.468 56.4H234.468ZM235.461 52.0242C236.087 50.6456 236.86 49.7236 237.75 49.048L226.865 34.712C223.435 37.3164 220.848 40.6744 219.074 44.5758L235.461 52.0242ZM237.686 49.0957C238.275 48.6569 238.893 48.42 239.868 48.42V30.42C235.162 30.42 230.74 31.8231 226.929 34.6643L237.686 49.0957ZM239.868 48.42C240.863 48.42 241.492 48.5605 241.864 48.6911L247.831 31.7089C245.243 30.7995 242.552 30.42 239.868 30.42V48.42ZM242.071 48.761C243.203 49.1281 244.436 49.6051 245.774 50.2073L253.161 33.7927C251.299 32.9549 249.452 32.2319 247.624 31.639L242.071 48.761ZM240.468 42V66.96H258.468V42H240.468ZM240.468 66.96C240.468 66.2858 240.59 65.5194 240.901 64.7425C241.21 63.9695 241.635 63.3614 242.048 62.9191L255.207 75.2009C257.278 72.9822 258.468 70.1042 258.468 66.96H240.468ZM242.048 62.9191C242.512 62.4224 243.18 61.8911 244.065 61.5007C244.955 61.1081 245.833 60.96 246.588 60.96V78.96C249.954 78.96 252.995 77.5711 255.207 75.2009L242.048 62.9191ZM237.468 72.78C239.911 72.78 242.274 72.2658 244.483 71.2843L237.172 54.8357C237.183 54.8311 237.225 54.8142 237.292 54.7998C237.359 54.7853 237.422 54.78 237.468 54.78V72.78ZM244.373 71.3323C246.249 70.528 248.123 69.4157 249.767 67.8631L237.408 54.7769C237.511 54.6794 237.572 54.6428 237.558 54.6517C237.542 54.6614 237.458 54.7122 237.282 54.7877L244.373 71.3323ZM252.587 61.4234L252.767 45.7634L234.768 45.5566L234.588 61.2166L252.587 61.4234ZM247.209 37.3438C244.87 36.3759 242.429 35.94 239.988 35.94V53.94C240.136 53.94 240.226 53.9529 240.268 53.961C240.31 53.9689 240.325 53.9755 240.326 53.9762L247.209 37.3438ZM239.988 35.94C236.209 35.94 232.671 37.1866 229.728 39.5944L241.127 53.5256C241.031 53.6036 240.841 53.7295 240.57 53.8257C240.301 53.9215 240.086 53.94 239.988 53.94V35.94ZM229.858 39.4906C227.163 41.6134 225.267 44.3464 224.038 47.3523L240.697 54.1677C240.809 53.8939 240.903 53.7499 240.947 53.6897C240.969 53.6587 240.984 53.6428 240.989 53.637C240.995 53.6313 240.997 53.6297 240.997 53.6294L229.858 39.4906ZM224.066 47.2848C222.861 50.1613 222.288 53.1888 222.288 56.28H240.288C240.288 55.4512 240.434 54.7987 240.669 54.2352L224.066 47.2848ZM222.288 56.28C222.288 59.8974 223.072 64.1595 226.029 67.6638L239.786 56.0562C239.974 56.279 240.107 56.4907 240.197 56.6648C240.285 56.836 240.324 56.955 240.336 56.9957C240.347 57.0348 240.334 57.0023 240.319 56.8798C240.303 56.7572 240.288 56.561 240.288 56.28H222.288ZM226.029 67.6638C229.118 71.3246 233.357 72.78 237.468 72.78V54.78C237.465 54.78 237.817 54.7808 238.35 55.0053C238.92 55.2454 239.425 55.6277 239.786 56.0562L226.029 67.6638ZM258.696 68.52L252.332 74.884L252.442 74.9937L252.555 75.0995L258.696 68.52ZM262.776 40.2L256.181 46.3241L256.294 46.4461L256.412 46.564L262.776 40.2ZM263.616 46.8H254.616L271.772 50.606L263.616 46.8ZM267.876 41.34L273.139 48.6406L273.195 48.6008L273.249 48.5601L267.876 41.34ZM278.856 40.98L273.286 48.0494L273.286 48.0494L278.856 40.98ZM281.736 46.14L273.005 48.3228L273.009 48.3402L273.014 48.3576L281.736 46.14ZM282.636 55.98L291.636 56.0314L291.636 56.0057V55.98H282.636ZM282.576 66.48L273.576 66.4286L273.576 66.4543V66.48H282.576ZM281.796 68.52L288.391 74.6441L288.496 74.531L288.597 74.4144L281.796 68.52ZM277.776 68.52L271.197 74.6609L271.409 74.8877L271.635 75.0995L277.776 68.52ZM275.256 45.96L268.483 51.8865L268.578 51.9953L268.677 52.1009L275.256 45.96ZM269.376 46.56L275.138 53.474L275.205 53.4182L275.271 53.3612L269.376 46.56ZM266.016 50.88L273.866 55.2833L273.879 55.2599L273.892 55.2366L266.016 50.88ZM264.096 55.68L255.327 53.6563L255.327 53.6563L264.096 55.68ZM262.776 68.52L256.181 62.3959L256.059 62.527L255.943 62.6629L262.776 68.52ZM260.736 60.36C261.492 60.36 262.299 60.5053 263.083 60.8279C263.855 61.1457 264.436 61.5663 264.837 61.9405L252.555 75.0995C254.676 77.0791 257.505 78.36 260.736 78.36V60.36ZM265.06 62.156C265.468 62.5643 265.946 63.1764 266.312 64.0126C266.685 64.8654 266.856 65.7574 266.856 66.6H248.856C248.856 69.9569 250.27 72.8215 252.332 74.884L265.06 62.156ZM266.856 66.6V42.24H248.856V66.6H266.856ZM266.856 42.24C266.856 42.9941 266.708 43.8728 266.316 44.7628C265.925 45.6475 265.394 46.3159 264.897 46.7795L252.615 33.6205C250.245 35.8327 248.856 38.8731 248.856 42.24H266.856ZM264.897 46.7795C264.455 47.1923 263.847 47.6171 263.074 47.9263C262.297 48.2371 261.53 48.36 260.856 48.36V30.36C257.712 30.36 254.834 31.5497 252.615 33.6205L264.897 46.7795ZM260.856 48.36C260.105 48.36 259.213 48.2155 258.299 47.8154C257.386 47.4159 256.681 46.8629 256.181 46.3241L269.371 34.0759C267.159 31.6936 264.135 30.36 260.856 30.36V48.36ZM256.412 46.564C255.917 46.069 255.43 45.3977 255.084 44.5567C254.739 43.7176 254.616 42.9116 254.616 42.24H272.616C272.616 39.0803 271.407 36.103 269.14 33.836L256.412 46.564ZM254.616 42.24V46.8H272.616V42.24H254.616ZM271.772 50.606C272.401 49.2568 272.94 48.7843 273.139 48.6406L262.613 34.0394C259.372 36.3757 257.071 39.5432 255.461 42.994L271.772 50.606ZM273.249 48.5601C273.337 48.495 273.398 48.4591 273.432 48.4412C273.465 48.4236 273.479 48.4191 273.477 48.4198C273.474 48.4207 273.469 48.422 273.466 48.4224C273.464 48.4228 273.479 48.42 273.516 48.42V30.42C269.438 30.42 265.692 31.7471 262.503 34.1199L273.249 48.5601ZM273.516 48.42C273.953 48.42 274.087 48.4721 274.008 48.4489C273.964 48.4361 273.867 48.4037 273.734 48.3369C273.6 48.2694 273.446 48.175 273.286 48.0494L284.426 33.9106C281.061 31.2594 277.105 30.42 273.516 30.42V48.42ZM273.286 48.0494C273.082 47.8887 272.936 47.7358 272.84 47.6194C272.746 47.5052 272.707 47.4349 272.707 47.4363C272.709 47.4387 272.745 47.5048 272.802 47.6545C272.859 47.8041 272.93 48.0226 273.005 48.3228L290.468 43.9572C289.603 40.5007 287.899 36.6466 284.426 33.9106L273.286 48.0494ZM273.014 48.3576C273.344 49.6547 273.636 52.0721 273.636 55.98H291.636C291.636 51.4879 291.329 47.3453 290.459 43.9224L273.014 48.3576ZM273.636 55.9286L273.576 66.4286L291.576 66.5314L291.636 56.0314L273.636 55.9286ZM273.576 66.48C273.576 65.8103 273.695 65.0767 273.975 64.3458C274.252 63.6206 274.63 63.0467 274.995 62.6256L288.597 74.4144C290.466 72.2579 291.576 69.5086 291.576 66.48H273.576ZM275.201 62.3959C275.746 61.8089 276.483 61.2523 277.396 60.8648C278.3 60.4813 279.149 60.36 279.816 60.36V78.36C282.987 78.36 286.081 77.1326 288.391 74.6441L275.201 62.3959ZM279.816 60.36C280.572 60.36 281.379 60.5053 282.163 60.8279C282.935 61.1457 283.516 61.5663 283.917 61.9405L271.635 75.0995C273.756 77.0791 276.585 78.36 279.816 78.36V60.36ZM284.356 62.3791C284.691 62.7382 285.106 63.2926 285.431 64.0601C285.765 64.8468 285.936 65.6976 285.936 66.54H267.936C267.936 69.8611 269.315 72.6452 271.197 74.6609L284.356 62.3791ZM285.936 66.54V56.58H267.936V66.54H285.936ZM285.936 56.58C285.936 53.2999 285.796 50.3157 285.394 47.9004L267.639 50.8596C267.796 51.8043 267.936 53.6201 267.936 56.58H285.936ZM285.394 47.9004C285.077 45.9968 284.344 42.5064 281.836 39.8191L268.677 52.1009C268.237 51.6301 267.964 51.2042 267.808 50.9279C267.651 50.6489 267.573 50.449 267.546 50.3763C267.501 50.2538 267.558 50.3728 267.639 50.8596L285.394 47.9004ZM282.029 40.0335C279.529 37.1763 276.159 36 272.976 36V54C272.451 54 271.666 53.9102 270.774 53.5347C269.855 53.1477 269.074 52.5615 268.483 51.8865L282.029 40.0335ZM272.976 36C268.993 36 265.782 37.7657 263.482 39.7588L275.271 53.3612C275.371 53.2743 274.559 54 272.976 54V36ZM263.615 39.646C261.302 41.5734 259.532 44.0089 258.141 46.5234L273.892 55.2366C274.581 53.9911 275.051 53.5466 275.138 53.474L263.615 39.646ZM258.167 46.4767C256.9 48.7358 255.909 51.1331 255.327 53.6563L272.866 57.7037C273.004 57.1069 273.293 56.3042 273.866 55.2833L258.167 46.4767ZM255.327 53.6563C254.769 56.0745 254.556 58.6727 254.556 61.32H272.556C272.556 59.5673 272.704 58.4055 272.866 57.7037L255.327 53.6563ZM254.556 61.32V66.36H272.556V61.32H254.556ZM254.556 66.36C254.556 65.9113 254.624 65.2581 254.896 64.5032C255.176 63.7275 255.617 63.0039 256.181 62.3959L269.371 74.6441C271.671 72.1674 272.556 69.1427 272.556 66.36H254.556ZM255.943 62.6629C256.625 61.8671 257.501 61.2307 258.48 60.8279C259.418 60.4415 260.227 60.36 260.736 60.36V78.36C263.686 78.36 267.087 77.3199 269.61 74.3771L255.943 62.6629ZM293.734 67.74L288.699 75.1996L288.806 75.2716L288.914 75.3406L293.734 67.74ZM289.894 63.06L281.69 66.76L281.72 66.8263L281.751 66.8922L289.894 63.06ZM290.134 46.92L281.905 43.2773L281.905 43.2773L290.134 46.92ZM294.634 41.4L299.517 48.9604L299.572 48.9248L299.627 48.8885L294.634 41.4ZM307.714 40.86L304.347 49.2062L316.294 54.0271L316.71 41.1502L307.714 40.86ZM308.014 31.56L299.026 31.1106L299.022 31.1902L299.019 31.2698L308.014 31.56ZM312.994 29.52L306.415 35.6609L306.627 35.8877L306.854 36.0995L312.994 29.52ZM313.834 31.68L304.844 31.2713L304.839 31.3674L304.837 31.4636L313.834 31.68ZM312.994 66.6L321.983 67.0494L321.989 66.933L321.992 66.8164L312.994 66.6ZM312.094 68.58L318.218 75.1751L318.218 75.1751L312.094 68.58ZM308.074 68.7L302.261 75.5705L302.386 75.676L302.514 75.7769L308.074 68.7ZM307.294 65.88H316.294V45.3241L301.19 59.2668L307.294 65.88ZM303.634 68.34L307.376 76.5253L307.472 76.4815L307.567 76.4356L303.634 68.34ZM303.514 63.06L307.427 71.165L307.483 71.1378L307.539 71.1098L303.514 63.06ZM306.334 60.9L299.339 55.2372L299.339 55.2372L306.334 60.9ZM307.414 58.56L316.401 59.0592L316.409 58.9011L316.413 58.7427L307.414 58.56ZM307.654 46.74L316.653 46.9227L316.753 41.9889L312.647 39.2515L307.654 46.74ZM304.894 45.48L301.867 53.9557L302.003 54.0042L302.14 54.0483L304.894 45.48ZM296.134 47.64L303.546 52.7457L303.572 52.7078L303.598 52.6697L296.134 47.64ZM295.714 61.92L288.362 67.1101L288.449 67.2339L288.541 67.3547L295.714 61.92ZM299.254 60.3C298.831 60.3 298.678 60.2181 298.554 60.1394L288.914 75.3406C292.07 77.3419 295.598 78.3 299.254 78.3V60.3ZM298.77 60.2804C298.725 60.2502 298.425 60.0502 298.038 59.2278L281.751 66.8922C283.284 70.1498 285.544 73.0698 288.699 75.1996L298.77 60.2804ZM298.099 59.36C297.824 58.7514 297.514 57.6357 297.514 55.74H279.514C279.514 59.5243 280.125 63.2886 281.69 66.76L298.099 59.36ZM297.514 55.74C297.514 53.2065 297.916 51.5749 298.364 50.5627L281.905 43.2773C280.193 47.1451 279.514 51.3935 279.514 55.74H297.514ZM298.364 50.5627C298.856 49.4524 299.304 49.0979 299.517 48.9604L289.752 33.8396C286.125 36.1821 283.573 39.5076 281.905 43.2773L298.364 50.5627ZM299.627 48.8885C299.932 48.6847 300.38 48.48 301.294 48.48V30.48C297.168 30.48 293.176 31.5553 289.642 33.9115L299.627 48.8885ZM301.294 48.48C301.909 48.48 302.899 48.622 304.347 49.2062L311.082 32.5138C307.97 31.258 304.68 30.48 301.294 30.48V48.48ZM316.71 41.1502L317.01 31.8502L299.019 31.2698L298.719 40.5698L316.71 41.1502ZM317.003 32.0094C316.973 32.6219 316.831 33.3409 316.504 34.0828C316.176 34.8262 315.733 35.4291 315.278 35.884L302.55 23.156C300.393 25.3138 299.176 28.11 299.026 31.1106L317.003 32.0094ZM315.278 35.884C314.861 36.3013 314.251 36.7676 313.435 37.1173C312.608 37.4715 311.771 37.62 311.014 37.62V19.62C307.671 19.62 304.725 20.9818 302.55 23.156L315.278 35.884ZM311.014 37.62C310.173 37.62 309.251 37.4456 308.355 37.0383C307.475 36.638 306.836 36.1123 306.415 35.6609L319.574 23.3791C317.464 21.1182 314.483 19.62 311.014 19.62V37.62ZM306.854 36.0995C306.228 35.5155 305.647 34.7207 305.266 33.742C304.892 32.7807 304.815 31.9083 304.844 31.2713L322.825 32.0887C322.975 28.7937 321.818 25.4445 319.135 22.9405L306.854 36.0995ZM304.837 31.4636L303.997 66.3836L321.992 66.8164L322.832 31.8964L304.837 31.4636ZM304.006 66.1506C304.036 65.5373 304.18 64.7755 304.546 63.9708C304.915 63.1582 305.425 62.4909 305.97 61.9849L318.218 75.1751C320.588 72.9751 321.832 70.068 321.983 67.0494L304.006 66.1506ZM305.97 61.9849C306.493 61.4999 307.16 61.0606 307.95 60.7585C308.733 60.4591 309.464 60.36 310.054 60.36V78.36C313.009 78.36 315.91 77.3189 318.218 75.1751L305.97 61.9849ZM310.054 60.36C310.553 60.36 311.167 60.434 311.835 60.6569C312.511 60.882 313.12 61.219 313.635 61.6231L302.514 75.7769C304.77 77.5494 307.423 78.36 310.054 78.36V60.36ZM313.888 61.8295C314.581 62.416 315.242 63.2275 315.702 64.2535C316.156 65.2659 316.294 66.2195 316.294 66.96H298.294C298.294 70.155 299.592 73.3122 302.261 75.5705L313.888 61.8295ZM316.294 66.96V65.88H298.294V66.96H316.294ZM301.19 59.2668C300.858 59.5726 300.388 59.9115 299.702 60.2444L307.567 76.4356C309.681 75.4085 311.65 74.1074 313.399 72.4932L301.19 59.2668ZM299.893 60.1547C299.651 60.2649 299.466 60.3 299.254 60.3V78.3C302.083 78.3 304.817 77.6951 307.376 76.5253L299.893 60.1547ZM299.734 72.9C302.372 72.9 304.979 72.3468 307.427 71.165L299.602 54.955C299.622 54.945 299.647 54.9346 299.674 54.9251C299.702 54.9157 299.726 54.9089 299.747 54.9043C299.791 54.8945 299.793 54.9 299.734 54.9V72.9ZM307.539 71.1098C309.618 70.0702 311.671 68.612 313.33 66.5628L299.339 55.2372C299.638 54.868 299.81 54.8498 299.489 55.0102L307.539 71.1098ZM313.33 66.5628C314.638 64.9471 316.215 62.3963 316.401 59.0592L298.428 58.0608C298.482 57.0942 298.736 56.3605 298.943 55.9135C299.143 55.4793 299.325 55.2549 299.339 55.2372L313.33 66.5628ZM316.413 58.7427L316.653 46.9227L298.656 46.5573L298.416 58.3773L316.413 58.7427ZM312.647 39.2515C311.036 38.178 309.297 37.4417 307.648 36.9117L302.14 54.0483C302.418 54.1375 302.593 54.2096 302.687 54.2522C302.781 54.2954 302.761 54.2944 302.662 54.2285L312.647 39.2515ZM307.921 37.0043C305.967 36.3065 303.863 35.88 301.654 35.88V53.88C301.595 53.88 301.576 53.8741 301.606 53.8795C301.637 53.8853 301.723 53.904 301.867 53.9557L307.921 37.0043ZM301.654 35.88C296.572 35.88 291.771 38.0103 288.671 42.6103L303.598 52.6697C303.421 52.9317 303.045 53.3321 302.469 53.6198C301.927 53.8908 301.573 53.88 301.654 53.88V35.88ZM288.723 42.5343C286.001 46.4859 285.274 51.2489 285.274 55.56H303.274C303.274 54.3284 303.387 53.5147 303.501 53.0277C303.614 52.5454 303.695 52.5301 303.546 52.7457L288.723 42.5343ZM285.274 55.56C285.274 59.0918 285.798 63.478 288.362 67.1101L303.067 56.7299C303.441 57.2593 303.467 57.5668 303.412 57.3226C303.359 57.0859 303.274 56.5332 303.274 55.56H285.274ZM288.541 67.3547C291.271 70.9586 295.285 72.9 299.734 72.9V54.9C300.1 54.9 300.732 54.9797 301.446 55.3312C302.164 55.6848 302.636 56.1517 302.888 56.4853L288.541 67.3547ZM327.062 67.56L322.703 75.434L322.786 75.48L322.87 75.5243L327.062 67.56ZM321.782 62.34L313.934 66.7458L313.951 66.7756L313.968 66.8053L321.782 62.34ZM321.542 47.1L313.492 43.0751L313.478 43.1034L313.464 43.1319L321.542 47.1ZM326.342 41.52L321.317 34.0537L321.283 34.0764L321.249 34.0994L326.342 41.52ZM339.662 40.92L335.138 48.7006L335.245 48.7623L335.352 48.8211L339.662 40.92ZM343.622 44.4L336.066 49.2893L336.066 49.2893L343.622 44.4ZM344.462 49.56L336.974 44.5677L336.974 44.5677L344.462 49.56ZM343.082 50.82L347.566 58.6234L347.64 58.5811L347.712 58.5374L343.082 50.82ZM327.002 60.06L322.518 52.2566L315.44 56.324L318.8 63.7643L327.002 60.06ZM329.942 62.94L326.01 71.0356L326.054 71.0571L326.099 71.0782L329.942 62.94ZM340.682 61.38L334.318 55.016L334.242 55.0918L334.168 55.1693L340.682 61.38ZM344.642 61.2L338.278 67.564L338.396 67.6818L338.518 67.7951L344.642 61.2ZM344.762 64.92L351.441 70.9526L351.519 70.8659L351.595 70.7771L344.762 64.92ZM340.262 68.1L344 76.2872L344.039 76.2694L344.077 76.2512L340.262 68.1ZM339.002 47.34L343.434 55.1731L351.301 50.7223L346.816 42.8747L339.002 47.34ZM336.962 45.48L332.937 53.5298L333.086 53.6044L333.238 53.6733L336.962 45.48ZM328.082 47.16L321.718 40.796L321.677 40.8374L321.636 40.8792L328.082 47.16ZM325.442 52.92L334.363 54.1095L334.38 53.986L334.393 53.8622L325.442 52.92ZM325.322 55.08H316.322V70.5128L329.754 62.9131L325.322 55.08ZM334.742 60.36C333.21 60.36 332.113 60.048 331.254 59.5957L322.87 75.5243C326.571 77.472 330.594 78.36 334.742 78.36V60.36ZM331.421 59.686C330.635 59.2508 330.065 58.6951 329.596 57.8747L313.968 66.8053C316.059 70.4649 319.009 73.3892 322.703 75.434L331.421 59.686ZM329.63 57.9342C329.23 57.2213 328.862 56.1127 328.862 54.3H310.862C310.862 58.6473 311.774 62.8987 313.934 66.7458L329.63 57.9342ZM328.862 54.3C328.862 53.1672 329.102 52.1236 329.62 51.0681L313.464 43.1319C311.743 46.6364 310.862 50.3928 310.862 54.3H328.862ZM329.592 51.1249C330.104 50.1007 330.714 49.4353 331.435 48.9406L321.249 34.0994C317.89 36.4047 315.3 39.4593 313.492 43.0751L329.592 51.1249ZM331.367 48.9863C331.881 48.6404 332.472 48.42 333.422 48.42V30.42C329.092 30.42 324.963 31.5996 321.317 34.0537L331.367 48.9863ZM333.422 48.42C334.631 48.42 335.072 48.6617 335.138 48.7006L344.186 33.1394C340.812 31.1783 337.093 30.42 333.422 30.42V48.42ZM335.352 48.8211C336.105 49.2314 336.172 49.4531 336.066 49.2893L351.178 39.5107C349.312 36.6269 346.739 34.5286 343.972 33.0189L335.352 48.8211ZM336.066 49.2893C336.221 49.5297 336.207 49.5592 336.146 49.3884C336.082 49.2103 335.942 48.7465 335.942 48.06H353.942C353.942 44.5812 352.56 41.6461 351.178 39.5107L336.066 49.2893ZM335.942 48.06C335.942 46.6114 336.42 45.3981 336.974 44.5677L351.95 54.5523C353.144 52.7619 353.942 50.5486 353.942 48.06H335.942ZM336.974 44.5677C337.533 43.7282 338.148 43.2847 338.452 43.1026L347.712 58.5374C349.216 57.6353 350.751 56.3518 351.95 54.5523L336.974 44.5677ZM338.598 43.0166L322.518 52.2566L331.486 67.8634L347.566 58.6234L338.598 43.0166ZM318.8 63.7643C320.349 67.1953 323.005 69.5761 326.01 71.0356L333.874 54.8444C333.932 54.8724 334.165 54.9968 334.455 55.2808C334.757 55.5763 335.02 55.9484 335.204 56.3557L318.8 63.7643ZM326.099 71.0782C328.862 72.3831 331.794 72.96 334.742 72.96V54.96C334.17 54.96 333.902 54.8569 333.785 54.8018L326.099 71.0782ZM334.742 72.96C339.59 72.96 343.904 71.043 347.196 67.5907L334.168 55.1693C334.125 55.2148 334.122 55.2102 334.165 55.1797C334.209 55.148 334.283 55.1029 334.382 55.06C334.481 55.017 334.575 54.9891 334.653 54.9735C334.729 54.9583 334.764 54.96 334.742 54.96V72.96ZM347.046 67.744C346.576 68.2142 345.078 69.42 342.662 69.42V51.42C338.886 51.42 336.068 53.2658 334.318 55.016L347.046 67.744ZM342.662 69.42C342.076 69.42 341.305 69.322 340.458 68.9887C339.597 68.6494 338.858 68.1443 338.278 67.564L351.006 54.836C348.641 52.4715 345.618 51.42 342.662 51.42V69.42ZM338.518 67.7951C337.979 67.2948 337.426 66.5906 337.027 65.6774C336.627 64.763 336.482 63.8714 336.482 63.12H354.482C354.482 59.8417 353.148 56.8171 350.766 54.6049L338.518 67.7951ZM336.482 63.12C336.482 62.2837 336.645 61.46 336.946 60.7075C337.24 59.9721 337.616 59.4277 337.929 59.0629L351.595 70.7771C353.248 68.8494 354.482 66.2316 354.482 63.12H336.482ZM338.083 58.8874C337.936 59.0501 337.495 59.4579 336.447 59.9488L344.077 76.2512C346.789 74.9821 349.348 73.2699 351.441 70.9526L338.083 58.8874ZM336.524 59.9128C335.74 60.2709 335.169 60.36 334.742 60.36V78.36C337.995 78.36 341.104 77.6091 344 76.2872L336.524 59.9128ZM346.816 42.8747C345.399 40.3949 343.289 38.4697 340.686 37.2867L333.238 53.6733C332.866 53.5041 332.457 53.2502 332.068 52.8956C331.679 52.5411 331.39 52.1585 331.188 51.8052L346.816 42.8747ZM340.987 37.4302C338.612 36.2429 336.137 35.82 333.842 35.82V53.82C333.947 53.82 333.552 53.8371 332.937 53.5298L340.987 37.4302ZM333.842 35.82C329.264 35.82 325.028 37.4861 321.718 40.796L334.446 53.524C334.447 53.5233 334.413 53.5569 334.342 53.6048C334.269 53.6535 334.179 53.7026 334.079 53.7432C333.861 53.8321 333.747 53.82 333.842 53.82V35.82ZM321.636 40.8792C318.628 43.9668 316.931 47.8012 316.491 51.9778L334.393 53.8622C334.406 53.7317 334.425 53.6459 334.438 53.5965C334.451 53.5479 334.461 53.5251 334.464 53.5199C334.466 53.5151 334.467 53.5125 334.471 53.5071C334.475 53.5014 334.491 53.4792 334.528 53.4408L321.636 40.8792ZM316.521 51.7305C316.373 52.8429 316.322 53.9823 316.322 55.08H334.322C334.322 54.4977 334.351 54.1971 334.363 54.1095L316.521 51.7305ZM329.754 62.9131L343.434 55.1731L334.57 39.5069L320.89 47.2469L329.754 62.9131ZM355.815 67.62L360.33 59.8347L360.33 59.8347L355.815 67.62ZM351.075 62.88L343.251 67.3287L343.27 67.3622L343.289 67.3955L351.075 62.88ZM351.255 48.24L343.18 44.2648L343.18 44.2648L351.255 48.24ZM356.295 41.88L361.867 48.9474L361.867 48.9474L356.295 41.88ZM367.995 40.44L363.772 48.388L363.919 48.4659L364.068 48.5383L367.995 40.44ZM371.835 43.56L365.015 49.4327L365.139 49.5768L365.269 49.7155L371.835 43.56ZM371.895 47.64L378.019 54.2352L378.141 54.1218L378.259 54.004L371.895 47.64ZM368.595 48.18L364.129 55.9942L364.346 56.1181L364.57 56.2299L368.595 48.18ZM367.575 47.22L374.489 41.4583L374.387 41.3368L374.282 41.2189L367.575 47.22ZM365.535 45.48L360.765 53.112L360.867 53.1761L360.972 53.2374L365.535 45.48ZM359.175 46.5L353.371 39.6214L353.317 39.6669L353.264 39.7133L359.175 46.5ZM356.115 50.76L347.921 47.0358L347.902 47.079L347.883 47.1225L356.115 50.76ZM355.995 60.3L348.164 64.7371L348.253 64.8935L348.348 65.0463L355.995 60.3ZM358.755 63L354.289 70.8142L354.396 70.8752L354.505 70.9333L358.755 63ZM366.195 63L361.697 55.2043L361.63 55.2429L361.564 55.2826L366.195 63ZM368.955 60.54L376.088 66.0274L376.104 66.0066L376.12 65.9857L368.955 60.54ZM373.515 59.88L367.151 66.244L367.269 66.3618L367.391 66.4751L373.515 59.88ZM373.695 63.72L366.618 58.1596L366.544 58.2537L366.473 58.3497L373.695 63.72ZM368.955 67.74L373.231 75.6591L373.292 75.6263L373.352 75.5926L368.955 67.74ZM362.415 60.36C361.538 60.36 360.905 60.168 360.33 59.8347L351.299 75.4053C354.725 77.392 358.492 78.36 362.415 78.36V60.36ZM360.33 59.8347C359.686 59.4613 359.233 59.0084 358.86 58.3645L343.289 67.3955C345.236 70.7516 347.943 73.4587 351.299 75.4053L360.33 59.8347ZM358.898 58.4313C358.527 57.779 358.335 57.0972 358.335 56.22H340.335C340.335 60.1428 341.302 63.901 343.251 67.3287L358.898 58.4313ZM358.335 56.22C358.335 54.9679 358.617 53.6613 359.329 52.2152L343.18 44.2648C341.332 48.0187 340.335 52.0321 340.335 56.22H358.335ZM359.329 52.2152C360.073 50.7047 360.937 49.6804 361.867 48.9474L350.722 34.8126C347.492 37.3596 344.997 40.5753 343.18 44.2648L359.329 52.2152ZM361.867 48.9474C362.596 48.3728 362.878 48.42 362.895 48.42V30.42C358.271 30.42 354.154 32.1071 350.722 34.8126L361.867 48.9474ZM362.895 48.42C363.488 48.42 363.837 48.4688 363.995 48.5002C364.15 48.5313 364.038 48.5294 363.772 48.388L372.217 32.492C369.174 30.8754 365.855 30.42 362.895 30.42V48.42ZM364.068 48.5383C364.007 48.5086 364.35 48.6611 365.015 49.4327L378.655 37.6873C376.839 35.5789 374.622 33.6514 371.921 32.3417L364.068 48.5383ZM365.269 49.7155C364.96 49.3856 364.557 48.8572 364.237 48.1103C363.908 47.3424 363.735 46.5014 363.735 45.66H381.735C381.735 42.2612 380.306 39.4366 378.401 37.4045L365.269 49.7155ZM363.735 45.66C363.735 44.9059 363.88 44.0577 364.239 43.2101C364.596 42.3697 365.079 41.7278 365.531 41.276L378.259 54.004C380.427 51.8353 381.735 48.9166 381.735 45.66H363.735ZM365.771 41.0448C366.293 40.5599 366.96 40.1206 367.75 39.8185C368.533 39.5191 369.265 39.42 369.855 39.42V57.42C372.809 57.42 375.71 56.3789 378.019 54.2352L365.771 41.0448ZM369.855 39.42C370.145 39.42 371.254 39.4472 372.62 40.1301L364.57 56.2299C366.576 57.2328 368.525 57.42 369.855 57.42V39.42ZM373.06 40.3658C373.742 40.7555 374.16 41.1364 374.298 41.2662C374.463 41.4219 374.529 41.5062 374.489 41.4583L360.661 52.9817C361.228 53.6622 362.406 55.0093 364.129 55.9942L373.06 40.3658ZM374.282 41.2189C373.153 39.9577 371.774 38.7084 370.098 37.7226L360.972 53.2374C360.805 53.1396 360.721 53.0685 360.714 53.0625C360.707 53.0566 360.76 53.1013 360.868 53.2211L374.282 41.2189ZM370.305 37.848C367.744 36.2478 365.031 35.88 362.955 35.88V53.88C362.955 53.88 362.738 53.8814 362.371 53.7961C361.995 53.7086 361.416 53.5188 360.765 53.112L370.305 37.848ZM362.955 35.88C358.947 35.88 355.703 37.6534 353.371 39.6214L364.979 53.3786C365.206 53.1866 364.483 53.88 362.955 53.88V35.88ZM353.264 39.7133C350.897 41.7747 349.162 44.3073 347.921 47.0358L364.308 54.4842C364.668 53.6927 364.973 53.3853 365.086 53.2867L353.264 39.7133ZM347.883 47.1225C346.628 49.9625 345.975 52.9793 345.975 56.1H363.975C363.975 55.5407 364.082 54.9975 364.347 54.3975L347.883 47.1225ZM345.975 56.1C345.975 59.0039 346.603 61.981 348.164 64.7371L363.825 55.8629C363.914 56.0195 363.958 56.1525 363.975 56.226C363.992 56.2931 363.975 56.2622 363.975 56.1H345.975ZM348.348 65.0463C349.809 67.4008 351.794 69.3884 354.289 70.8142L363.22 55.1858C363.324 55.2454 363.429 55.324 363.518 55.4115C363.606 55.4972 363.643 55.5562 363.641 55.5537L348.348 65.0463ZM354.505 70.9333C356.898 72.2156 359.534 72.9 362.295 72.9V54.9C362.409 54.9 362.549 54.9148 362.697 54.9525C362.844 54.9899 362.95 55.0372 363.005 55.0667L354.505 70.9333ZM362.295 72.9C364.943 72.9 367.999 72.4129 370.825 70.7174L361.564 55.2826C361.98 55.0333 362.307 54.9375 362.446 54.9055C362.576 54.8756 362.544 54.9 362.295 54.9V72.9ZM370.692 70.7957C372.845 69.5538 374.636 67.9149 376.088 66.0274L361.821 55.0526C361.742 55.1559 361.691 55.2033 361.676 55.2164C361.663 55.2282 361.671 55.2195 361.697 55.2043L370.692 70.7957ZM376.12 65.9857C375.964 66.1917 375.52 66.7148 374.693 67.1956C373.802 67.714 372.703 68.04 371.535 68.04V50.04C366.935 50.04 363.679 52.6071 361.789 55.0943L376.12 65.9857ZM371.535 68.04C370.781 68.04 369.932 67.8949 369.085 67.5352C368.244 67.1787 367.603 66.6958 367.151 66.244L379.879 53.516C377.71 51.3474 374.791 50.04 371.535 50.04V68.04ZM367.391 66.4751C366.95 66.0656 366.41 65.4274 365.989 64.526C365.558 63.6015 365.355 62.6185 365.355 61.68H383.355C383.355 58.1744 381.782 55.2748 379.639 53.2849L367.391 66.4751ZM365.355 61.68C365.355 61.2503 365.415 60.6743 365.627 60.0196C365.842 59.3529 366.179 58.7177 366.618 58.1596L380.772 69.2804C382.61 66.94 383.355 64.2342 383.355 61.68H365.355ZM366.473 58.3497C366.192 58.7268 365.647 59.2771 364.557 59.8874L373.352 75.5926C376.262 73.9629 378.877 71.8332 380.917 69.0903L366.473 58.3497ZM364.678 59.8209C364.043 60.1638 363.341 60.36 362.415 60.36V78.36C366.208 78.36 369.866 77.4762 373.231 75.6591L364.678 59.8209ZM382.618 68.58L376.254 74.944L376.364 75.0537L376.477 75.1595L382.618 68.58ZM381.778 45.18H390.778V36.18H381.778V45.18ZM374.998 44.34L368.419 50.4809L368.525 50.5943L368.634 50.704L374.998 44.34ZM375.058 40.2L380.953 47.0012L381.078 46.8926L381.199 46.7795L375.058 40.2ZM381.778 39.36V48.36H390.778V39.36H381.778ZM382.618 30.9L376.039 24.7591L376.039 24.7591L382.618 30.9ZM386.698 30.9L379.897 36.7944L380.107 37.037L380.334 37.264L386.698 30.9ZM387.538 39.36H378.538V48.36H387.538V39.36ZM394.678 40.2L388.314 46.564L388.314 46.564L394.678 40.2ZM394.678 44.34L401.042 50.704L401.152 50.5943L401.258 50.4809L394.678 44.34ZM387.538 45.18V36.18H378.538V45.18H387.538ZM386.698 68.58L393.062 74.944L393.062 74.944L386.698 68.58ZM384.658 60.42C385.414 60.42 386.221 60.5653 387.005 60.8879C387.777 61.2057 388.358 61.6263 388.759 62.0005L376.477 75.1595C378.598 77.1391 381.427 78.42 384.658 78.42V60.42ZM388.982 62.216C389.434 62.6678 389.917 63.3097 390.274 64.1501C390.633 64.9977 390.778 65.8459 390.778 66.6H372.778C372.778 69.8566 374.086 72.7753 376.254 74.944L388.982 62.216ZM390.778 66.6V45.18H372.778V66.6H390.778ZM381.778 36.18H377.038V54.18H381.778V36.18ZM377.038 36.18C377.71 36.18 378.516 36.3023 379.355 36.6479C380.196 36.9942 380.867 37.4811 381.362 37.976L368.634 50.704C370.901 52.971 373.879 54.18 377.038 54.18V36.18ZM381.578 38.1991C381.952 38.6 382.373 39.1814 382.69 39.9533C383.013 40.7368 383.158 41.5446 383.158 42.3H365.158C365.158 45.5312 366.439 48.3598 368.419 50.4809L381.578 38.1991ZM383.158 42.3C383.158 42.8909 383.055 43.7293 382.656 44.6603C382.246 45.6151 381.636 46.4087 380.953 47.0012L369.164 33.3988C366.364 35.8257 365.158 39.1273 365.158 42.3H383.158ZM381.199 46.7795C380.757 47.1923 380.149 47.6171 379.376 47.9263C378.599 48.2371 377.832 48.36 377.158 48.36V30.36C374.014 30.36 371.136 31.5497 368.917 33.6205L381.199 46.7795ZM377.158 48.36H381.778V30.36H377.158V48.36ZM390.778 39.36V32.94H372.778V39.36H390.778ZM390.778 32.94C390.778 33.6954 390.633 34.5032 390.31 35.2867C389.993 36.0586 389.572 36.64 389.198 37.0409L376.039 24.7591C374.059 26.8802 372.778 29.7088 372.778 32.94H390.778ZM389.198 37.0409C388.734 37.5376 388.066 38.0689 387.181 38.4593C386.291 38.8519 385.412 39 384.658 39V21C381.291 21 378.251 22.3889 376.039 24.7591L389.198 37.0409ZM384.658 39C383.99 39 383.11 38.876 382.166 38.4593C381.208 38.0367 380.447 37.4288 379.897 36.7944L393.499 25.0056C391.16 22.3068 387.936 21 384.658 21V39ZM380.334 37.264C379.839 36.769 379.352 36.0977 379.006 35.2567C378.661 34.4176 378.538 33.6116 378.538 32.94H396.538C396.538 29.7803 395.329 26.803 393.062 24.536L380.334 37.264ZM378.538 32.94V39.36H396.538V32.94H378.538ZM387.538 48.36H392.638V30.36H387.538V48.36ZM392.638 48.36C391.967 48.36 391.161 48.2377 390.322 47.8921C389.481 47.5458 388.809 47.0589 388.314 46.564L401.042 33.836C398.775 31.569 395.798 30.36 392.638 30.36V48.36ZM388.314 46.564C387.777 46.0264 387.287 45.3259 386.952 44.4875C386.621 43.6596 386.518 42.8945 386.518 42.3H404.518C404.518 39.2337 403.4 36.1942 401.042 33.836L388.314 46.564ZM386.518 42.3C386.518 41.5446 386.664 40.7368 386.986 39.9532C387.304 39.1814 387.725 38.6 388.099 38.1991L401.258 50.4809C403.237 48.3599 404.518 45.5312 404.518 42.3H386.518ZM388.314 37.976C388.809 37.4811 389.481 36.9942 390.322 36.6479C391.161 36.3023 391.967 36.18 392.638 36.18V54.18C395.798 54.18 398.775 52.971 401.042 50.704L388.314 37.976ZM392.638 36.18H387.538V54.18H392.638V36.18ZM378.538 45.18V66.6H396.538V45.18H378.538ZM378.538 66.6C378.538 65.8459 378.683 64.9977 379.043 64.1501C379.4 63.3097 379.883 62.6678 380.334 62.216L393.062 74.944C395.231 72.7753 396.538 69.8566 396.538 66.6H378.538ZM380.334 62.216C380.829 61.7211 381.501 61.2342 382.342 60.8879C383.181 60.5423 383.987 60.42 384.658 60.42V78.42C387.818 78.42 390.795 77.211 393.062 74.944L380.334 62.216Z" fill="white" mask="url(#path-1-outside-1_400_2)"/>
</svg>
